ISO-10303-21;
HEADER;
FILE_DESCRIPTION(('Open CASCADE Model'),'2;1');
FILE_NAME('Open CASCADE Shape Model','2026-07-14T10:47:49',('Author'),(
    'Open CASCADE'),'Open CASCADE STEP processor 7.9','build123d',
  'Unknown');
FILE_SCHEMA(('AUTOMOTIVE_DESIGN { 1 0 10303 214 1 1 1 1 }'));
ENDSEC;
DATA;
#1 = APPLICATION_PROTOCOL_DEFINITION('international standard',
  'automotive_design',2000,#2);
#2 = APPLICATION_CONTEXT(
  'core data for automotive mechanical design processes');
#3 = SHAPE_DEFINITION_REPRESENTATION(#4,#10);
#4 = PRODUCT_DEFINITION_SHAPE('','',#5);
#5 = PRODUCT_DEFINITION('design','',#6,#9);
#6 = PRODUCT_DEFINITION_FORMATION('','',#7);
#7 = PRODUCT('COMPOUND','COMPOUND','',(#8));
#8 = PRODUCT_CONTEXT('',#2,'mechanical');
#9 = PRODUCT_DEFINITION_CONTEXT('part definition',#2,'design');
#10 = ADVANCED_BREP_SHAPE_REPRESENTATION('',(#11,#15),#1615);
#11 = AXIS2_PLACEMENT_3D('',#12,#13,#14);
#12 = CARTESIAN_POINT('',(0.,0.,0.));
#13 = DIRECTION('',(0.,0.,1.));
#14 = DIRECTION('',(1.,0.,-0.));
#15 = MANIFOLD_SOLID_BREP('',#16);
#16 = CLOSED_SHELL('',(#17,#386,#472,#507,#542,#577,#931,#990,#1117,
    #1144,#1170,#1219,#1246,#1252,#1279,#1284,#1402,#1407,#1483,#1532,
    #1581,#1608));
#17 = ADVANCED_FACE('',(#18),#124,.T.);
#18 = FACE_BOUND('',#19,.T.);
#19 = EDGE_LOOP('',(#20,#335,#358,#385));
#20 = ORIENTED_EDGE('',*,*,#21,.F.);
#21 = EDGE_CURVE('',#22,#22,#24,.T.);
#22 = VERTEX_POINT('',#23);
#23 = CARTESIAN_POINT('',(8.,510.,291.05572809));
#24 = SURFACE_CURVE('',#25,(#123,#229),.PCURVE_S1.);
#25 = B_SPLINE_CURVE_WITH_KNOTS('',6,(#26,#27,#28,#29,#30,#31,#32,#33,
    #34,#35,#36,#37,#38,#39,#40,#41,#42,#43,#44,#45,#46,#47,#48,#49,#50,
    #51,#52,#53,#54,#55,#56,#57,#58,#59,#60,#61,#62,#63,#64,#65,#66,#67,
    #68,#69,#70,#71,#72,#73,#74,#75,#76,#77,#78,#79,#80,#81,#82,#83,#84,
    #85,#86,#87,#88,#89,#90,#91,#92,#93,#94,#95,#96,#97,#98,#99,#100,
    #101,#102,#103,#104,#105,#106,#107,#108,#109,#110,#111,#112,#113,
    #114,#115,#116,#117,#118,#119,#120,#121,#122),.UNSPECIFIED.,.T.,.F.,
  (7,5,5,5,5,5,5,5,5,5,5,5,5,5,5,5,5,5,5,7),(0.,5.013515860435E-02,
    0.105044637137,0.155352740821,0.197156207746,0.24997719565,
    0.302578695987,0.346431841342,0.394878769701,0.448204664086,
    0.499942727772,0.550071807674,0.60497462862,0.673273609539,
    0.728194124993,0.782024901601,0.827853876209,0.894984137249,
    0.948285620542,1.),.UNSPECIFIED.);
#26 = CARTESIAN_POINT('',(8.,510.,291.05572809));
#27 = CARTESIAN_POINT('',(8.,510.37957047487,291.05572809));
#28 = CARTESIAN_POINT('',(7.978389135445,510.75858460711,291.03639878335
    ));
#29 = CARTESIAN_POINT('',(7.935284871232,511.13559242332,290.99784498322
    ));
#30 = CARTESIAN_POINT('',(7.870922529082,511.50908079557,290.9409828471)
  );
#31 = CARTESIAN_POINT('',(7.785691069951,511.87734849999,290.86754310724
    ));
#32 = CARTESIAN_POINT('',(7.565227373691,512.63381381561,290.68389399448
    ));
#33 = CARTESIAN_POINT('',(7.425934035189,513.0208193531,290.57078872919)
  );
#34 = CARTESIAN_POINT('',(7.263039841572,513.39898117111,290.44310595342
    ));
#35 = CARTESIAN_POINT('',(7.076655978442,513.76764821262,290.30354501868
    ));
#36 = CARTESIAN_POINT('',(6.866708739341,514.12590835257,290.15484956744
    ));
#37 = CARTESIAN_POINT('',(6.418800475233,514.79017108132,289.85775947232
    ));
#38 = CARTESIAN_POINT('',(6.184546713065,515.09820654638,289.71030827914
    ));
#39 = CARTESIAN_POINT('',(5.929540769344,515.39637811693,289.55929751961
    ));
#40 = CARTESIAN_POINT('',(5.652782364676,515.68397679469,289.40657688404
    ));
#41 = CARTESIAN_POINT('',(5.353062064092,515.95971974187,289.25420809782
    ));
#42 = CARTESIAN_POINT('',(4.759892724082,516.43919572352,288.9804115023)
  );
#43 = CARTESIAN_POINT('',(4.473733703544,516.64739575412,288.85800775661
    ));
#44 = CARTESIAN_POINT('',(4.169829049608,516.845007976,288.73888543835)
  );
#45 = CARTESIAN_POINT('',(3.847409400378,517.0304366214,288.62470569948)
  );
#46 = CARTESIAN_POINT('',(3.505815114753,517.20163750465,288.5174323705)
  );
#47 = CARTESIAN_POINT('',(2.688178444475,517.55116437251,288.29541223579
    ));
#48 = CARTESIAN_POINT('',(2.195010340761,517.72179273302,288.18467522534
    ));
#49 = CARTESIAN_POINT('',(1.671749852013,517.85775248029,288.0948297353)
  );
#50 = CARTESIAN_POINT('',(1.125915234531,517.95197659785,288.03201609775
    ));
#51 = CARTESIAN_POINT('',(0.565825445566,518.,288.));
#52 = CARTESIAN_POINT('',(-0.563474265558,518.,288.));
#53 = CARTESIAN_POINT('',(-1.121217831507,517.95237487854,
    288.03175057689));
#54 = CARTESIAN_POINT('',(-1.664839016053,517.85893816367,
    288.09403929839));
#55 = CARTESIAN_POINT('',(-2.186140228027,517.72408940226,
    288.18315726525));
#56 = CARTESIAN_POINT('',(-2.677705308344,517.55477982834,
    288.29306554554));
#57 = CARTESIAN_POINT('',(-3.512504419466,517.1994763329,288.51884579398
    ));
#58 = CARTESIAN_POINT('',(-3.870421744941,517.01940376114,
    288.63166265321));
#59 = CARTESIAN_POINT('',(-4.20723811773,516.82376106057,288.75200398216
    ));
#60 = CARTESIAN_POINT('',(-4.523732715429,516.61488466799,
    288.87761688342));
#61 = CARTESIAN_POINT('',(-4.820811577585,516.39456764252,
    289.00661627902));
#62 = CARTESIAN_POINT('',(-5.407154603762,515.90950250625,
    289.28187186484));
#63 = CARTESIAN_POINT('',(-5.692612351354,515.64229271461,
    289.42864836269));
#64 = CARTESIAN_POINT('',(-5.956901994577,515.36420376116,
    289.57554935853));
#65 = CARTESIAN_POINT('',(-6.201083328879,515.07634796777,
    289.72074368024));
#66 = CARTESIAN_POINT('',(-6.426031997848,514.77935366673,
    289.86257471114));
#67 = CARTESIAN_POINT('',(-6.85940874446,514.13683636576,290.14998708956
    ));
#68 = CARTESIAN_POINT('',(-7.064011138472,513.78926153196,
    290.29458652997));
#69 = CARTESIAN_POINT('',(-7.246380290414,513.43185085352,
    290.43064691385));
#70 = CARTESIAN_POINT('',(-7.406599762746,513.06542669171,
    290.55566423606));
#71 = CARTESIAN_POINT('',(-7.544580442892,512.69057819647,
    290.66716755428));
#72 = CARTESIAN_POINT('',(-7.771846839095,511.93621303383,
    290.85562824094));
#73 = CARTESIAN_POINT('',(-7.8625590264,511.55683863585,290.93359732288)
  );
#74 = CARTESIAN_POINT('',(-7.931078825994,511.17177149239,
    290.99408294551));
#75 = CARTESIAN_POINT('',(-7.976979630801,510.78286438052,
    291.03513809408));
#76 = CARTESIAN_POINT('',(-8.,510.39175347804,291.05572809));
#77 = CARTESIAN_POINT('',(-8.,509.62042952512,291.05572809));
#78 = CARTESIAN_POINT('',(-7.978389135445,509.24141539288,
    291.03639878335));
#79 = CARTESIAN_POINT('',(-7.935284871233,508.86440757667,
    290.99784498322));
#80 = CARTESIAN_POINT('',(-7.870922529081,508.49091920442,290.9409828471
    ));
#81 = CARTESIAN_POINT('',(-7.785691069951,508.1226515,290.86754310724));
#82 = CARTESIAN_POINT('',(-7.565227373722,507.36618618448,290.6838939945
    ));
#83 = CARTESIAN_POINT('',(-7.425934035195,506.97918064687,
    290.57078872919));
#84 = CARTESIAN_POINT('',(-7.263039841526,506.60101882878,
    290.44310595338));
#85 = CARTESIAN_POINT('',(-7.076655978407,506.23235178735,
    290.30354501866));
#86 = CARTESIAN_POINT('',(-6.866708739408,505.87409164752,
    290.15484956748));
#87 = CARTESIAN_POINT('',(-6.342178564546,505.09619609794,
    289.80693743451));
#88 = CARTESIAN_POINT('',(-6.014617599216,504.68299436022,
    289.60428128694));
#89 = CARTESIAN_POINT('',(-5.648495347629,504.28811916923,
    289.39632341261));
#90 = CARTESIAN_POINT('',(-5.240786790963,503.91353781854,
    289.18751265962));
#91 = CARTESIAN_POINT('',(-4.787913691191,503.56351082551,
    288.98346964277));
#92 = CARTESIAN_POINT('',(-3.883509989829,502.98955878385,
    288.63757899753));
#93 = CARTESIAN_POINT('',(-3.446177265613,502.75251380519,
    288.49026199643));
#94 = CARTESIAN_POINT('',(-2.97512590517,502.54055375708,288.35510796145
    ));
#95 = CARTESIAN_POINT('',(-2.471519176453,502.35995881736,
    288.23775625281));
#96 = CARTESIAN_POINT('',(-1.937312957699,502.2171891762,288.1439158786)
  );
#97 = CARTESIAN_POINT('',(-0.82470153398,502.02300739762,288.0155429803)
  );
#98 = CARTESIAN_POINT('',(-0.251713995111,501.97059467357,
    287.98036959467));
#99 = CARTESIAN_POINT('',(0.330088412672,501.96883858024,287.97906684896
    ));
#100 = CARTESIAN_POINT('',(0.906639268265,502.01886387092,
    288.01280120507));
#101 = CARTESIAN_POINT('',(1.464130941829,502.11643796038,
    288.07774538204));
#102 = CARTESIAN_POINT('',(2.436809698606,502.36617941778,
    288.24127208474));
#103 = CARTESIAN_POINT('',(2.862272614682,502.50844579314,
    288.33366199615));
#104 = CARTESIAN_POINT('',(3.265079080409,502.67408168815,
    288.43988275897));
#105 = CARTESIAN_POINT('',(3.644855067924,502.85946929278,
    288.55671907959));
#106 = CARTESIAN_POINT('',(4.00157060486,503.06132191357,288.68118213827
    ));
#107 = CARTESIAN_POINT('',(4.824498882296,503.59197089644,
    289.00003217211));
#108 = CARTESIAN_POINT('',(5.266942946352,503.93771009035,
    289.20096166235));
#109 = CARTESIAN_POINT('',(5.66590548683,504.30700921682,289.40624757706
    ));
#110 = CARTESIAN_POINT('',(6.024759639636,504.69589215185,
    289.61058405073));
#111 = CARTESIAN_POINT('',(6.346342296511,505.10249968092,
    289.80972506755));
#112 = CARTESIAN_POINT('',(6.85940874446,505.86316363423,290.14998708956
    ));
#113 = CARTESIAN_POINT('',(7.064011138472,506.21073846803,
    290.29458652997));
#114 = CARTESIAN_POINT('',(7.246380290414,506.56814914647,
    290.43064691385));
#115 = CARTESIAN_POINT('',(7.406599762745,506.93457330828,
    290.55566423606));
#116 = CARTESIAN_POINT('',(7.544580442892,507.30942180352,
    290.66716755428));
#117 = CARTESIAN_POINT('',(7.771846839095,508.06378696616,
    290.85562824094));
#118 = CARTESIAN_POINT('',(7.8625590264,508.44316136414,290.93359732288)
  );
#119 = CARTESIAN_POINT('',(7.931078825994,508.8282285076,290.99408294551
    ));
#120 = CARTESIAN_POINT('',(7.976979630801,509.21713561947,
    291.03513809408));
#121 = CARTESIAN_POINT('',(8.,509.60824652195,291.05572809));
#122 = CARTESIAN_POINT('',(8.,510.,291.05572809));
#123 = PCURVE('',#124,#129);
#124 = CYLINDRICAL_SURFACE('',#125,8.);
#125 = AXIS2_PLACEMENT_3D('',#126,#127,#128);
#126 = CARTESIAN_POINT('',(0.,510.,236.5));
#127 = DIRECTION('',(0.,0.,1.));
#128 = DIRECTION('',(1.,0.,-0.));
#129 = DEFINITIONAL_REPRESENTATION('',(#130),#228);
#130 = B_SPLINE_CURVE_WITH_KNOTS('',6,(#131,#132,#133,#134,#135,#136,
    #137,#138,#139,#140,#141,#142,#143,#144,#145,#146,#147,#148,#149,
    #150,#151,#152,#153,#154,#155,#156,#157,#158,#159,#160,#161,#162,
    #163,#164,#165,#166,#167,#168,#169,#170,#171,#172,#173,#174,#175,
    #176,#177,#178,#179,#180,#181,#182,#183,#184,#185,#186,#187,#188,
    #189,#190,#191,#192,#193,#194,#195,#196,#197,#198,#199,#200,#201,
    #202,#203,#204,#205,#206,#207,#208,#209,#210,#211,#212,#213,#214,
    #215,#216,#217,#218,#219,#220,#221,#222,#223,#224,#225,#226,#227),
  .UNSPECIFIED.,.F.,.F.,(7,5,5,5,5,5,5,5,5,5,5,5,5,5,5,5,5,5,5,7),(0.,
    5.013515860435E-02,0.105044637137,0.155352740821,0.197156207746,
    0.24997719565,0.302578695987,0.346431841342,0.394878769701,
    0.448204664086,0.499942727772,0.550071807674,0.60497462862,
    0.673273609539,0.728194124993,0.782024901601,0.827853876209,
    0.894984137249,0.948285620542,1.),.UNSPECIFIED.);
#131 = CARTESIAN_POINT('',(0.,54.555728090001));
#132 = CARTESIAN_POINT('',(4.744630935906E-02,54.555728090001));
#133 = CARTESIAN_POINT('',(9.482303947809E-02,54.536398783359));
#134 = CARTESIAN_POINT('',(0.142141447052,54.497844983221));
#135 = CARTESIAN_POINT('',(0.189400990833,54.440982847106));
#136 = CARTESIAN_POINT('',(0.236576740726,54.367543107249));
#137 = CARTESIAN_POINT('',(0.335068810132,54.183893994481));
#138 = CARTESIAN_POINT('',(0.386384102038,54.070788729191));
#139 = CARTESIAN_POINT('',(0.437709003408,53.94310595342));
#140 = CARTESIAN_POINT('',(0.489199701336,53.803545018686));
#141 = CARTESIAN_POINT('',(0.541001726104,53.654849567442));
#142 = CARTESIAN_POINT('',(0.641147462554,53.357759472327));
#143 = CARTESIAN_POINT('',(0.689442630526,53.210308279145));
#144 = CARTESIAN_POINT('',(0.738364004514,53.059297519611));
#145 = CARTESIAN_POINT('',(0.78812120305,52.906576884045));
#146 = CARTESIAN_POINT('',(0.838925722741,52.75420809782));
#147 = CARTESIAN_POINT('',(0.934266155772,52.480411502302));
#148 = CARTESIAN_POINT('',(0.978444642879,52.358007756612));
#149 = CARTESIAN_POINT('',(1.023661978011,52.238885438355));
#150 = CARTESIAN_POINT('',(1.070044323519,52.124705699482));
#151 = CARTESIAN_POINT('',(1.11771845186,52.017432370506));
#152 = CARTESIAN_POINT('',(1.228870006331,51.795412235791));
#153 = CARTESIAN_POINT('',(1.293937624347,51.684675225341));
#154 = CARTESIAN_POINT('',(1.361190553012,51.594829735302));
#155 = CARTESIAN_POINT('',(1.430056960731,51.532016097751));
#156 = CARTESIAN_POINT('',(1.500068146099,51.5));
#157 = CARTESIAN_POINT('',(1.64123060999,51.5));
#158 = CARTESIAN_POINT('',(1.710948518468,51.531750576894));
#159 = CARTESIAN_POINT('',(1.779530334172,51.594039298399));
#160 = CARTESIAN_POINT('',(1.846515251131,51.683157265258));
#161 = CARTESIAN_POINT('',(1.911341161615,51.793065545544));
#162 = CARTESIAN_POINT('',(2.024749310697,52.018845793989));
#163 = CARTESIAN_POINT('',(2.074730509949,52.131662653218));
#164 = CARTESIAN_POINT('',(2.123293584848,52.252003982162));
#165 = CARTESIAN_POINT('',(2.170585415533,52.377616883427));
#166 = CARTESIAN_POINT('',(2.21675275334,52.506616279025));
#167 = CARTESIAN_POINT('',(2.311874905956,52.781871864849));
#168 = CARTESIAN_POINT('',(2.360659447032,52.928648362693));
#169 = CARTESIAN_POINT('',(2.408495356354,53.075549358535));
#170 = CARTESIAN_POINT('',(2.455570691619,53.220743680249));
#171 = CARTESIAN_POINT('',(2.502071673964,53.36257471114));
#172 = CARTESIAN_POINT('',(2.59894819706,53.649987089562));
#173 = CARTESIAN_POINT('',(2.649268840321,53.79458652997));
#174 = CARTESIAN_POINT('',(2.699290005189,53.930646913858));
#175 = CARTESIAN_POINT('',(2.749147846836,54.05566423606));
#176 = CARTESIAN_POINT('',(2.798987414869,54.167167554285));
#177 = CARTESIAN_POINT('',(2.897469393984,54.355628240943));
#178 = CARTESIAN_POINT('',(2.94614619521,54.43359732288));
#179 = CARTESIAN_POINT('',(2.994909680505,54.494082945514));
#180 = CARTESIAN_POINT('',(3.043734650281,54.535138094082));
#181 = CARTESIAN_POINT('',(3.092623468834,54.555728090001));
#182 = CARTESIAN_POINT('',(3.189038962949,54.555728090001));
#183 = CARTESIAN_POINT('',(3.236415693068,54.536398783358));
#184 = CARTESIAN_POINT('',(3.283734100642,54.497844983221));
#185 = CARTESIAN_POINT('',(3.330993644423,54.440982847106));
#186 = CARTESIAN_POINT('',(3.378169394315,54.367543107249));
#187 = CARTESIAN_POINT('',(3.476661463708,54.183893994507));
#188 = CARTESIAN_POINT('',(3.527976755631,54.070788729195));
#189 = CARTESIAN_POINT('',(3.579301657011,53.94310595338));
#190 = CARTESIAN_POINT('',(3.630792354931,53.803545018668));
#191 = CARTESIAN_POINT('',(3.682594379678,53.654849567486));
#192 = CARTESIAN_POINT('',(3.799871654651,53.306937434517));
#193 = CARTESIAN_POINT('',(3.86558730336,53.104281286944));
#194 = CARTESIAN_POINT('',(3.932591888041,52.89632341262));
#195 = CARTESIAN_POINT('',(4.001445472284,52.687512659623));
#196 = CARTESIAN_POINT('',(4.072686569103,52.483469642778));
#197 = CARTESIAN_POINT('',(4.206580592096,52.137578997536));
#198 = CARTESIAN_POINT('',(4.268614073281,51.990261996436));
#199 = CARTESIAN_POINT('',(4.332908279589,51.85510796145));
#200 = CARTESIAN_POINT('',(4.399454917163,51.737756252816));
#201 = CARTESIAN_POINT('',(4.468304709471,51.643915878604));
#202 = CARTESIAN_POINT('',(4.609483383018,51.515542980303));
#203 = CARTESIAN_POINT('',(4.681166649868,51.480369594675));
#204 = CARTESIAN_POINT('',(4.753461357678,51.479066848967));
#205 = CARTESIAN_POINT('',(4.82538239661,51.512801205072));
#206 = CARTESIAN_POINT('',(4.895912695404,51.577745382048));
#207 = CARTESIAN_POINT('',(5.021441250387,51.74127208474));
#208 = CARTESIAN_POINT('',(5.077375828197,51.833661996153));
#209 = CARTESIAN_POINT('',(5.131639869088,51.939882758972));
#210 = CARTESIAN_POINT('',(5.184315145375,52.056719079597));
#211 = CARTESIAN_POINT('',(5.235462938814,52.181182138279));
#212 = CARTESIAN_POINT('',(5.357860810325,52.500032172116));
#213 = CARTESIAN_POINT('',(5.427761842913,52.700961662355));
#214 = CARTESIAN_POINT('',(5.495382686761,52.906247577066));
#215 = CARTESIAN_POINT('',(5.56123548308,53.110584050738));
#216 = CARTESIAN_POINT('',(5.625850586386,53.309725067554));
#217 = CARTESIAN_POINT('',(5.74054085065,53.649987089562));
#218 = CARTESIAN_POINT('',(5.790861493911,53.79458652997));
#219 = CARTESIAN_POINT('',(5.840882658779,53.930646913858));
#220 = CARTESIAN_POINT('',(5.890740500426,54.05566423606));
#221 = CARTESIAN_POINT('',(5.940580068459,54.167167554285));
#222 = CARTESIAN_POINT('',(6.039062047573,54.355628240943));
#223 = CARTESIAN_POINT('',(6.087738848799,54.43359732288));
#224 = CARTESIAN_POINT('',(6.136502334094,54.494082945514));
#225 = CARTESIAN_POINT('',(6.185327303871,54.535138094082));
#226 = CARTESIAN_POINT('',(6.234216122424,54.555728090001));
#227 = CARTESIAN_POINT('',(6.28318530718,54.555728090001));
#228 = ( GEOMETRIC_REPRESENTATION_CONTEXT(2) 
PARAMETRIC_REPRESENTATION_CONTEXT() REPRESENTATION_CONTEXT('2D SPACE',''
  ) );
#229 = PCURVE('',#230,#235);
#230 = CYLINDRICAL_SURFACE('',#231,12.);
#231 = AXIS2_PLACEMENT_3D('',#232,#233,#234);
#232 = CARTESIAN_POINT('',(0.,524.,300.));
#233 = DIRECTION('',(0.,-1.,0.));
#234 = DIRECTION('',(1.,0.,0.));
#235 = DEFINITIONAL_REPRESENTATION('',(#236),#334);
#236 = B_SPLINE_CURVE_WITH_KNOTS('',6,(#237,#238,#239,#240,#241,#242,
    #243,#244,#245,#246,#247,#248,#249,#250,#251,#252,#253,#254,#255,
    #256,#257,#258,#259,#260,#261,#262,#263,#264,#265,#266,#267,#268,
    #269,#270,#271,#272,#273,#274,#275,#276,#277,#278,#279,#280,#281,
    #282,#283,#284,#285,#286,#287,#288,#289,#290,#291,#292,#293,#294,
    #295,#296,#297,#298,#299,#300,#301,#302,#303,#304,#305,#306,#307,
    #308,#309,#310,#311,#312,#313,#314,#315,#316,#317,#318,#319,#320,
    #321,#322,#323,#324,#325,#326,#327,#328,#329,#330,#331,#332,#333),
  .UNSPECIFIED.,.T.,.F.,(7,5,5,5,5,5,5,5,5,5,5,5,5,5,5,5,5,5,5,7),(0.,
    5.013515860435E-02,0.105044637137,0.155352740821,0.197156207746,
    0.24997719565,0.302578695987,0.346431841342,0.394878769701,
    0.448204664086,0.499942727772,0.550071807674,0.60497462862,
    0.673273609539,0.728194124993,0.782024901601,0.827853876209,
    0.894984137249,0.948285620542,1.),.UNSPECIFIED.);
#237 = CARTESIAN_POINT('',(5.442116636612,14.));
#238 = CARTESIAN_POINT('',(5.442116636612,13.620429525128));
#239 = CARTESIAN_POINT('',(5.439700482742,13.241415392884));
#240 = CARTESIAN_POINT('',(5.43488121304,12.864407576678));
#241 = CARTESIAN_POINT('',(5.427724606238,12.490919204424));
#242 = CARTESIAN_POINT('',(5.418350350364,12.122651500004));
#243 = CARTESIAN_POINT('',(5.394439166616,11.366186184383));
#244 = CARTESIAN_POINT('',(5.379487768545,10.979180646899));
#245 = CARTESIAN_POINT('',(5.362244218646,10.601018828889));
#246 = CARTESIAN_POINT('',(5.34284918722,10.232351787377));
#247 = CARTESIAN_POINT('',(5.321419992009,9.874091647428));
#248 = CARTESIAN_POINT('',(5.276630024004,9.209828918671));
#249 = CARTESIAN_POINT('',(5.253570277582,8.90179345362));
#250 = CARTESIAN_POINT('',(5.228887297809,8.603621883062));
#251 = CARTESIAN_POINT('',(5.202566616862,8.316023205303));
#252 = CARTESIAN_POINT('',(5.174567669891,8.040280258127));
#253 = CARTESIAN_POINT('',(5.120125138924,7.560804276476));
#254 = CARTESIAN_POINT('',(5.094198910969,7.352604245873));
#255 = CARTESIAN_POINT('',(5.067017461183,7.154992023998));
#256 = CARTESIAN_POINT('',(5.038540063458,6.969563378591));
#257 = CARTESIAN_POINT('',(5.008726063416,6.798362495343));
#258 = CARTESIAN_POINT('',(4.938122383507,6.448835627488));
#259 = CARTESIAN_POINT('',(4.89604291983,6.278207266973));
#260 = CARTESIAN_POINT('',(4.851889864327,6.142247519711));
#261 = CARTESIAN_POINT('',(4.806215328047,6.04802340214));
#262 = CARTESIAN_POINT('',(4.759541100848,6.));
#263 = CARTESIAN_POINT('',(4.665432791588,6.));
#264 = CARTESIAN_POINT('',(4.61895408383,6.047625121459));
#265 = CARTESIAN_POINT('',(4.573466335817,6.141061836326));
#266 = CARTESIAN_POINT('',(4.529483433097,6.275910597738));
#267 = CARTESIAN_POINT('',(4.487549105204,6.445220171659));
#268 = CARTESIAN_POINT('',(4.415483053493,6.8005236671));
#269 = CARTESIAN_POINT('',(4.384236556752,6.980596238858));
#270 = CARTESIAN_POINT('',(4.354460461336,7.176238939424));
#271 = CARTESIAN_POINT('',(4.326107143191,7.385115332002));
#272 = CARTESIAN_POINT('',(4.29912888666,7.605432357477));
#273 = CARTESIAN_POINT('',(4.245150767258,8.09049749375));
#274 = CARTESIAN_POINT('',(4.218419507793,8.357707285386));
#275 = CARTESIAN_POINT('',(4.193240129291,8.635796238837));
#276 = CARTESIAN_POINT('',(4.169578664552,8.923652032221));
#277 = CARTESIAN_POINT('',(4.147423937489,9.220646333269));
#278 = CARTESIAN_POINT('',(4.104088899079,9.863163634237));
#279 = CARTESIAN_POINT('',(4.083219591043,10.210738468038));
#280 = CARTESIAN_POINT('',(4.064266588148,10.568149146479));
#281 = CARTESIAN_POINT('',(4.047335312208,10.934573308287));
#282 = CARTESIAN_POINT('',(4.032552950818,11.309421803522));
#283 = CARTESIAN_POINT('',(4.007949506324,12.063786966167));
#284 = CARTESIAN_POINT('',(3.997983118879,12.443161364143));
#285 = CARTESIAN_POINT('',(3.990367011548,12.828228507607));
#286 = CARTESIAN_POINT('',(3.985235061741,13.217135619479));
#287 = CARTESIAN_POINT('',(3.982661324158,13.608246521957));
#288 = CARTESIAN_POINT('',(3.982661324158,14.379570474872));
#289 = CARTESIAN_POINT('',(3.985077478027,14.758584607116));
#290 = CARTESIAN_POINT('',(3.989896747729,15.135592423321));
#291 = CARTESIAN_POINT('',(3.997053354532,15.509080795577));
#292 = CARTESIAN_POINT('',(4.006427610405,15.877348499995));
#293 = CARTESIAN_POINT('',(4.03033879415,16.633813815511));
#294 = CARTESIAN_POINT('',(4.045290192223,17.020819353128));
#295 = CARTESIAN_POINT('',(4.062533742129,17.398981171215));
#296 = CARTESIAN_POINT('',(4.081928773553,17.767648212649));
#297 = CARTESIAN_POINT('',(4.103357968754,18.125908352472));
#298 = CARTESIAN_POINT('',(4.15580998099,18.903803902052));
#299 = CARTESIAN_POINT('',(4.187892529826,19.317005639776));
#300 = CARTESIAN_POINT('',(4.222941281656,19.711880830764));
#301 = CARTESIAN_POINT('',(4.261052109999,20.086462181453));
#302 = CARTESIAN_POINT('',(4.302375544636,20.43648917449));
#303 = CARTESIAN_POINT('',(4.383066415381,21.010441216144));
#304 = CARTESIAN_POINT('',(4.421491597342,21.247486194809));
#305 = CARTESIAN_POINT('',(4.462262972193,21.459446242912));
#306 = CARTESIAN_POINT('',(4.505263012138,21.640041182636));
#307 = CARTESIAN_POINT('',(4.550383130205,21.782810823799));
#308 = CARTESIAN_POINT('',(4.643715860159,21.976992602372));
#309 = CARTESIAN_POINT('',(4.691486351575,22.029405326428));
#310 = CARTESIAN_POINT('',(4.739839021122,22.031161419761));
#311 = CARTESIAN_POINT('',(4.787842329827,21.98113612908));
#312 = CARTESIAN_POINT('',(4.834554553835,21.883562039613));
#313 = CARTESIAN_POINT('',(4.916748639286,21.633820582216));
#314 = CARTESIAN_POINT('',(4.952989667211,21.491554206855));
#315 = CARTESIAN_POINT('',(4.987657085522,21.32591831185));
#316 = CARTESIAN_POINT('',(5.020732858841,21.140530707217));
#317 = CARTESIAN_POINT('',(5.052198519349,20.938678086425));
#318 = CARTESIAN_POINT('',(5.125743493018,20.408029103551));
#319 = CARTESIAN_POINT('',(5.166172876679,20.062289909643));
#320 = CARTESIAN_POINT('',(5.203504811033,19.692990783174));
#321 = CARTESIAN_POINT('',(5.237880011924,19.304107848149));
#322 = CARTESIAN_POINT('',(5.269385537903,18.897500319079));
#323 = CARTESIAN_POINT('',(5.32068906169,18.136836365763));
#324 = CARTESIAN_POINT('',(5.341558369727,17.789261531962));
#325 = CARTESIAN_POINT('',(5.360511372622,17.431850853521));
#326 = CARTESIAN_POINT('',(5.377442648561,17.065426691713));
#327 = CARTESIAN_POINT('',(5.392225009951,16.690578196478));
#328 = CARTESIAN_POINT('',(5.416828454445,15.936213033833));
#329 = CARTESIAN_POINT('',(5.42679484189,15.556838635857));
#330 = CARTESIAN_POINT('',(5.434410949221,15.171771492393));
#331 = CARTESIAN_POINT('',(5.439542899028,14.782864380521));
#332 = CARTESIAN_POINT('',(5.442116636612,14.391753478043));
#333 = CARTESIAN_POINT('',(5.442116636612,14.));
#334 = ( GEOMETRIC_REPRESENTATION_CONTEXT(2) 
PARAMETRIC_REPRESENTATION_CONTEXT() REPRESENTATION_CONTEXT('2D SPACE',''
  ) );
#335 = ORIENTED_EDGE('',*,*,#336,.F.);
#336 = EDGE_CURVE('',#337,#22,#339,.T.);
#337 = VERTEX_POINT('',#338);
#338 = CARTESIAN_POINT('',(8.,510.,236.5));
#339 = SEAM_CURVE('',#340,(#344,#351),.PCURVE_S1.);
#340 = LINE('',#341,#342);
#341 = CARTESIAN_POINT('',(8.,510.,236.5));
#342 = VECTOR('',#343,1.);
#343 = DIRECTION('',(0.,0.,1.));
#344 = PCURVE('',#124,#345);
#345 = DEFINITIONAL_REPRESENTATION('',(#346),#350);
#346 = LINE('',#347,#348);
#347 = CARTESIAN_POINT('',(6.28318530718,-0.));
#348 = VECTOR('',#349,1.);
#349 = DIRECTION('',(0.,1.));
#350 = ( GEOMETRIC_REPRESENTATION_CONTEXT(2) 
PARAMETRIC_REPRESENTATION_CONTEXT() REPRESENTATION_CONTEXT('2D SPACE',''
  ) );
#351 = PCURVE('',#124,#352);
#352 = DEFINITIONAL_REPRESENTATION('',(#353),#357);
#353 = LINE('',#354,#355);
#354 = CARTESIAN_POINT('',(0.,-0.));
#355 = VECTOR('',#356,1.);
#356 = DIRECTION('',(0.,1.));
#357 = ( GEOMETRIC_REPRESENTATION_CONTEXT(2) 
PARAMETRIC_REPRESENTATION_CONTEXT() REPRESENTATION_CONTEXT('2D SPACE',''
  ) );
#358 = ORIENTED_EDGE('',*,*,#359,.T.);
#359 = EDGE_CURVE('',#337,#337,#360,.T.);
#360 = SURFACE_CURVE('',#361,(#366,#373),.PCURVE_S1.);
#361 = CIRCLE('',#362,8.);
#362 = AXIS2_PLACEMENT_3D('',#363,#364,#365);
#363 = CARTESIAN_POINT('',(0.,510.,236.5));
#364 = DIRECTION('',(0.,0.,1.));
#365 = DIRECTION('',(1.,0.,-0.));
#366 = PCURVE('',#124,#367);
#367 = DEFINITIONAL_REPRESENTATION('',(#368),#372);
#368 = LINE('',#369,#370);
#369 = CARTESIAN_POINT('',(0.,0.));
#370 = VECTOR('',#371,1.);
#371 = DIRECTION('',(1.,0.));
#372 = ( GEOMETRIC_REPRESENTATION_CONTEXT(2) 
PARAMETRIC_REPRESENTATION_CONTEXT() REPRESENTATION_CONTEXT('2D SPACE',''
  ) );
#373 = PCURVE('',#374,#379);
#374 = PLANE('',#375);
#375 = AXIS2_PLACEMENT_3D('',#376,#377,#378);
#376 = CARTESIAN_POINT('',(0.,510.,236.5));
#377 = DIRECTION('',(0.,0.,1.));
#378 = DIRECTION('',(1.,0.,-0.));
#379 = DEFINITIONAL_REPRESENTATION('',(#380),#384);
#380 = CIRCLE('',#381,8.);
#381 = AXIS2_PLACEMENT_2D('',#382,#383);
#382 = CARTESIAN_POINT('',(0.,0.));
#383 = DIRECTION('',(1.,0.));
#384 = ( GEOMETRIC_REPRESENTATION_CONTEXT(2) 
PARAMETRIC_REPRESENTATION_CONTEXT() REPRESENTATION_CONTEXT('2D SPACE',''
  ) );
#385 = ORIENTED_EDGE('',*,*,#336,.T.);
#386 = ADVANCED_FACE('',(#387,#469),#230,.T.);
#387 = FACE_BOUND('',#388,.T.);
#388 = EDGE_LOOP('',(#389,#414,#441,#442));
#389 = ORIENTED_EDGE('',*,*,#390,.T.);
#390 = EDGE_CURVE('',#391,#393,#395,.T.);
#391 = VERTEX_POINT('',#392);
#392 = CARTESIAN_POINT('',(12.,524.,300.));
#393 = VERTEX_POINT('',#394);
#394 = CARTESIAN_POINT('',(12.,486.,300.));
#395 = SEAM_CURVE('',#396,(#400,#407),.PCURVE_S1.);
#396 = LINE('',#397,#398);
#397 = CARTESIAN_POINT('',(12.,524.,300.));
#398 = VECTOR('',#399,1.);
#399 = DIRECTION('',(0.,-1.,0.));
#400 = PCURVE('',#230,#401);
#401 = DEFINITIONAL_REPRESENTATION('',(#402),#406);
#402 = LINE('',#403,#404);
#403 = CARTESIAN_POINT('',(6.28318530718,-0.));
#404 = VECTOR('',#405,1.);
#405 = DIRECTION('',(0.,1.));
#406 = ( GEOMETRIC_REPRESENTATION_CONTEXT(2) 
PARAMETRIC_REPRESENTATION_CONTEXT() REPRESENTATION_CONTEXT('2D SPACE',''
  ) );
#407 = PCURVE('',#230,#408);
#408 = DEFINITIONAL_REPRESENTATION('',(#409),#413);
#409 = LINE('',#410,#411);
#410 = CARTESIAN_POINT('',(0.,-0.));
#411 = VECTOR('',#412,1.);
#412 = DIRECTION('',(0.,1.));
#413 = ( GEOMETRIC_REPRESENTATION_CONTEXT(2) 
PARAMETRIC_REPRESENTATION_CONTEXT() REPRESENTATION_CONTEXT('2D SPACE',''
  ) );
#414 = ORIENTED_EDGE('',*,*,#415,.F.);
#415 = EDGE_CURVE('',#393,#393,#416,.T.);
#416 = SURFACE_CURVE('',#417,(#422,#429),.PCURVE_S1.);
#417 = CIRCLE('',#418,12.);
#418 = AXIS2_PLACEMENT_3D('',#419,#420,#421);
#419 = CARTESIAN_POINT('',(0.,486.,300.));
#420 = DIRECTION('',(0.,-1.,0.));
#421 = DIRECTION('',(1.,0.,0.));
#422 = PCURVE('',#230,#423);
#423 = DEFINITIONAL_REPRESENTATION('',(#424),#428);
#424 = LINE('',#425,#426);
#425 = CARTESIAN_POINT('',(0.,38.));
#426 = VECTOR('',#427,1.);
#427 = DIRECTION('',(1.,0.));
#428 = ( GEOMETRIC_REPRESENTATION_CONTEXT(2) 
PARAMETRIC_REPRESENTATION_CONTEXT() REPRESENTATION_CONTEXT('2D SPACE',''
  ) );
#429 = PCURVE('',#430,#435);
#430 = PLANE('',#431);
#431 = AXIS2_PLACEMENT_3D('',#432,#433,#434);
#432 = CARTESIAN_POINT('',(0.,486.,300.));
#433 = DIRECTION('',(0.,-1.,0.));
#434 = DIRECTION('',(1.,0.,0.));
#435 = DEFINITIONAL_REPRESENTATION('',(#436),#440);
#436 = CIRCLE('',#437,12.);
#437 = AXIS2_PLACEMENT_2D('',#438,#439);
#438 = CARTESIAN_POINT('',(0.,0.));
#439 = DIRECTION('',(1.,0.));
#440 = ( GEOMETRIC_REPRESENTATION_CONTEXT(2) 
PARAMETRIC_REPRESENTATION_CONTEXT() REPRESENTATION_CONTEXT('2D SPACE',''
  ) );
#441 = ORIENTED_EDGE('',*,*,#390,.F.);
#442 = ORIENTED_EDGE('',*,*,#443,.T.);
#443 = EDGE_CURVE('',#391,#391,#444,.T.);
#444 = SURFACE_CURVE('',#445,(#450,#457),.PCURVE_S1.);
#445 = CIRCLE('',#446,12.);
#446 = AXIS2_PLACEMENT_3D('',#447,#448,#449);
#447 = CARTESIAN_POINT('',(0.,524.,300.));
#448 = DIRECTION('',(0.,-1.,0.));
#449 = DIRECTION('',(1.,0.,0.));
#450 = PCURVE('',#230,#451);
#451 = DEFINITIONAL_REPRESENTATION('',(#452),#456);
#452 = LINE('',#453,#454);
#453 = CARTESIAN_POINT('',(0.,0.));
#454 = VECTOR('',#455,1.);
#455 = DIRECTION('',(1.,0.));
#456 = ( GEOMETRIC_REPRESENTATION_CONTEXT(2) 
PARAMETRIC_REPRESENTATION_CONTEXT() REPRESENTATION_CONTEXT('2D SPACE',''
  ) );
#457 = PCURVE('',#458,#463);
#458 = PLANE('',#459);
#459 = AXIS2_PLACEMENT_3D('',#460,#461,#462);
#460 = CARTESIAN_POINT('',(0.,524.,300.));
#461 = DIRECTION('',(0.,-1.,0.));
#462 = DIRECTION('',(1.,0.,0.));
#463 = DEFINITIONAL_REPRESENTATION('',(#464),#468);
#464 = CIRCLE('',#465,12.);
#465 = AXIS2_PLACEMENT_2D('',#466,#467);
#466 = CARTESIAN_POINT('',(0.,0.));
#467 = DIRECTION('',(1.,0.));
#468 = ( GEOMETRIC_REPRESENTATION_CONTEXT(2) 
PARAMETRIC_REPRESENTATION_CONTEXT() REPRESENTATION_CONTEXT('2D SPACE',''
  ) );
#469 = FACE_BOUND('',#470,.T.);
#470 = EDGE_LOOP('',(#471));
#471 = ORIENTED_EDGE('',*,*,#21,.T.);
#472 = ADVANCED_FACE('',(#473,#476),#374,.F.);
#473 = FACE_BOUND('',#474,.F.);
#474 = EDGE_LOOP('',(#475));
#475 = ORIENTED_EDGE('',*,*,#359,.T.);
#476 = FACE_BOUND('',#477,.F.);
#477 = EDGE_LOOP('',(#478));
#478 = ORIENTED_EDGE('',*,*,#479,.F.);
#479 = EDGE_CURVE('',#480,#480,#482,.T.);
#480 = VERTEX_POINT('',#481);
#481 = CARTESIAN_POINT('',(6.,510.,236.5));
#482 = SURFACE_CURVE('',#483,(#488,#495),.PCURVE_S1.);
#483 = CIRCLE('',#484,6.);
#484 = AXIS2_PLACEMENT_3D('',#485,#486,#487);
#485 = CARTESIAN_POINT('',(0.,510.,236.5));
#486 = DIRECTION('',(0.,0.,1.));
#487 = DIRECTION('',(1.,0.,-0.));
#488 = PCURVE('',#374,#489);
#489 = DEFINITIONAL_REPRESENTATION('',(#490),#494);
#490 = CIRCLE('',#491,6.);
#491 = AXIS2_PLACEMENT_2D('',#492,#493);
#492 = CARTESIAN_POINT('',(0.,0.));
#493 = DIRECTION('',(1.,0.));
#494 = ( GEOMETRIC_REPRESENTATION_CONTEXT(2) 
PARAMETRIC_REPRESENTATION_CONTEXT() REPRESENTATION_CONTEXT('2D SPACE',''
  ) );
#495 = PCURVE('',#496,#501);
#496 = CYLINDRICAL_SURFACE('',#497,6.);
#497 = AXIS2_PLACEMENT_3D('',#498,#499,#500);
#498 = CARTESIAN_POINT('',(0.,510.,211.));
#499 = DIRECTION('',(0.,0.,1.));
#500 = DIRECTION('',(1.,0.,-0.));
#501 = DEFINITIONAL_REPRESENTATION('',(#502),#506);
#502 = LINE('',#503,#504);
#503 = CARTESIAN_POINT('',(0.,25.5));
#504 = VECTOR('',#505,1.);
#505 = DIRECTION('',(1.,0.));
#506 = ( GEOMETRIC_REPRESENTATION_CONTEXT(2) 
PARAMETRIC_REPRESENTATION_CONTEXT() REPRESENTATION_CONTEXT('2D SPACE',''
  ) );
#507 = ADVANCED_FACE('',(#508,#511),#458,.F.);
#508 = FACE_BOUND('',#509,.F.);
#509 = EDGE_LOOP('',(#510));
#510 = ORIENTED_EDGE('',*,*,#443,.T.);
#511 = FACE_BOUND('',#512,.F.);
#512 = EDGE_LOOP('',(#513));
#513 = ORIENTED_EDGE('',*,*,#514,.F.);
#514 = EDGE_CURVE('',#515,#515,#517,.T.);
#515 = VERTEX_POINT('',#516);
#516 = CARTESIAN_POINT('',(4.,524.,300.));
#517 = SURFACE_CURVE('',#518,(#523,#530),.PCURVE_S1.);
#518 = CIRCLE('',#519,4.);
#519 = AXIS2_PLACEMENT_3D('',#520,#521,#522);
#520 = CARTESIAN_POINT('',(0.,524.,300.));
#521 = DIRECTION('',(0.,-1.,0.));
#522 = DIRECTION('',(1.,0.,0.));
#523 = PCURVE('',#458,#524);
#524 = DEFINITIONAL_REPRESENTATION('',(#525),#529);
#525 = CIRCLE('',#526,4.);
#526 = AXIS2_PLACEMENT_2D('',#527,#528);
#527 = CARTESIAN_POINT('',(0.,0.));
#528 = DIRECTION('',(1.,0.));
#529 = ( GEOMETRIC_REPRESENTATION_CONTEXT(2) 
PARAMETRIC_REPRESENTATION_CONTEXT() REPRESENTATION_CONTEXT('2D SPACE',''
  ) );
#530 = PCURVE('',#531,#536);
#531 = CYLINDRICAL_SURFACE('',#532,4.);
#532 = AXIS2_PLACEMENT_3D('',#533,#534,#535);
#533 = CARTESIAN_POINT('',(0.,546.,300.));
#534 = DIRECTION('',(0.,-1.,0.));
#535 = DIRECTION('',(1.,0.,0.));
#536 = DEFINITIONAL_REPRESENTATION('',(#537),#541);
#537 = LINE('',#538,#539);
#538 = CARTESIAN_POINT('',(0.,22.));
#539 = VECTOR('',#540,1.);
#540 = DIRECTION('',(1.,0.));
#541 = ( GEOMETRIC_REPRESENTATION_CONTEXT(2) 
PARAMETRIC_REPRESENTATION_CONTEXT() REPRESENTATION_CONTEXT('2D SPACE',''
  ) );
#542 = ADVANCED_FACE('',(#543,#546),#430,.T.);
#543 = FACE_BOUND('',#544,.T.);
#544 = EDGE_LOOP('',(#545));
#545 = ORIENTED_EDGE('',*,*,#415,.T.);
#546 = FACE_BOUND('',#547,.T.);
#547 = EDGE_LOOP('',(#548));
#548 = ORIENTED_EDGE('',*,*,#549,.F.);
#549 = EDGE_CURVE('',#550,#550,#552,.T.);
#550 = VERTEX_POINT('',#551);
#551 = CARTESIAN_POINT('',(6.,486.,300.));
#552 = SURFACE_CURVE('',#553,(#558,#565),.PCURVE_S1.);
#553 = CIRCLE('',#554,6.);
#554 = AXIS2_PLACEMENT_3D('',#555,#556,#557);
#555 = CARTESIAN_POINT('',(0.,486.,300.));
#556 = DIRECTION('',(0.,-1.,0.));
#557 = DIRECTION('',(1.,0.,0.));
#558 = PCURVE('',#430,#559);
#559 = DEFINITIONAL_REPRESENTATION('',(#560),#564);
#560 = CIRCLE('',#561,6.);
#561 = AXIS2_PLACEMENT_2D('',#562,#563);
#562 = CARTESIAN_POINT('',(0.,0.));
#563 = DIRECTION('',(1.,0.));
#564 = ( GEOMETRIC_REPRESENTATION_CONTEXT(2) 
PARAMETRIC_REPRESENTATION_CONTEXT() REPRESENTATION_CONTEXT('2D SPACE',''
  ) );
#565 = PCURVE('',#566,#571);
#566 = CYLINDRICAL_SURFACE('',#567,6.);
#567 = AXIS2_PLACEMENT_3D('',#568,#569,#570);
#568 = CARTESIAN_POINT('',(0.,511.,300.));
#569 = DIRECTION('',(0.,-1.,0.));
#570 = DIRECTION('',(1.,0.,0.));
#571 = DEFINITIONAL_REPRESENTATION('',(#572),#576);
#572 = LINE('',#573,#574);
#573 = CARTESIAN_POINT('',(0.,25.));
#574 = VECTOR('',#575,1.);
#575 = DIRECTION('',(1.,0.));
#576 = ( GEOMETRIC_REPRESENTATION_CONTEXT(2) 
PARAMETRIC_REPRESENTATION_CONTEXT() REPRESENTATION_CONTEXT('2D SPACE',''
  ) );
#577 = ADVANCED_FACE('',(#578,#740,#838),#496,.F.);
#578 = FACE_BOUND('',#579,.F.);
#579 = EDGE_LOOP('',(#580,#581,#604,#654,#684,#713,#739));
#580 = ORIENTED_EDGE('',*,*,#479,.T.);
#581 = ORIENTED_EDGE('',*,*,#582,.T.);
#582 = EDGE_CURVE('',#480,#583,#585,.T.);
#583 = VERTEX_POINT('',#584);
#584 = CARTESIAN_POINT('',(6.,510.,300.));
#585 = SEAM_CURVE('',#586,(#590,#597),.PCURVE_S1.);
#586 = LINE('',#587,#588);
#587 = CARTESIAN_POINT('',(6.,510.,211.));
#588 = VECTOR('',#589,1.);
#589 = DIRECTION('',(0.,0.,1.));
#590 = PCURVE('',#496,#591);
#591 = DEFINITIONAL_REPRESENTATION('',(#592),#596);
#592 = LINE('',#593,#594);
#593 = CARTESIAN_POINT('',(0.,-0.));
#594 = VECTOR('',#595,1.);
#595 = DIRECTION('',(0.,1.));
#596 = ( GEOMETRIC_REPRESENTATION_CONTEXT(2) 
PARAMETRIC_REPRESENTATION_CONTEXT() REPRESENTATION_CONTEXT('2D SPACE',''
  ) );
#597 = PCURVE('',#496,#598);
#598 = DEFINITIONAL_REPRESENTATION('',(#599),#603);
#599 = LINE('',#600,#601);
#600 = CARTESIAN_POINT('',(6.28318530718,-0.));
#601 = VECTOR('',#602,1.);
#602 = DIRECTION('',(0.,1.));
#603 = ( GEOMETRIC_REPRESENTATION_CONTEXT(2) 
PARAMETRIC_REPRESENTATION_CONTEXT() REPRESENTATION_CONTEXT('2D SPACE',''
  ) );
#604 = ORIENTED_EDGE('',*,*,#605,.F.);
#605 = EDGE_CURVE('',#606,#583,#608,.T.);
#606 = VERTEX_POINT('',#607);
#607 = CARTESIAN_POINT('',(-6.,510.,300.));
#608 = SURFACE_CURVE('',#609,(#614,#634),.PCURVE_S1.);
#609 = ELLIPSE('',#610,8.485281374239,6.);
#610 = AXIS2_PLACEMENT_3D('',#611,#612,#613);
#611 = CARTESIAN_POINT('',(0.,510.,300.));
#612 = DIRECTION('',(0.,-0.707106781187,0.707106781187));
#613 = DIRECTION('',(0.,0.707106781187,0.707106781187));
#614 = PCURVE('',#496,#615);
#615 = DEFINITIONAL_REPRESENTATION('',(#616),#633);
#616 = B_SPLINE_CURVE_WITH_KNOTS('',8,(#617,#618,#619,#620,#621,#622,
    #623,#624,#625,#626,#627,#628,#629,#630,#631,#632),.UNSPECIFIED.,.F.
  ,.F.,(9,7,9),(1.570796326795,3.14159265359,4.712388980385),
  .UNSPECIFIED.);
#617 = CARTESIAN_POINT('',(3.14159265359,89.));
#618 = CARTESIAN_POINT('',(3.337942194439,87.821902754904));
#619 = CARTESIAN_POINT('',(3.53429173529,86.643805230007));
#620 = CARTESIAN_POINT('',(3.730641276136,85.534920432867));
#621 = CARTESIAN_POINT('',(3.926990817004,84.56444749661));
#622 = CARTESIAN_POINT('',(4.123340357834,83.793091722124));
#623 = CARTESIAN_POINT('',(4.319689898688,83.264364655857));
#624 = CARTESIAN_POINT('',(4.516039439535,83.));
#625 = CARTESIAN_POINT('',(4.908738521234,83.));
#626 = CARTESIAN_POINT('',(5.105088062084,83.264364655908));
#627 = CARTESIAN_POINT('',(5.301437602932,83.793091721978));
#628 = CARTESIAN_POINT('',(5.497787143783,84.564447496494));
#629 = CARTESIAN_POINT('',(5.694136684631,85.534920432838));
#630 = CARTESIAN_POINT('',(5.890486225482,86.643805230065));
#631 = CARTESIAN_POINT('',(6.08683576633,87.821902754904));
#632 = CARTESIAN_POINT('',(6.28318530718,89.));
#633 = ( GEOMETRIC_REPRESENTATION_CONTEXT(2) 
PARAMETRIC_REPRESENTATION_CONTEXT() REPRESENTATION_CONTEXT('2D SPACE',''
  ) );
#634 = PCURVE('',#566,#635);
#635 = DEFINITIONAL_REPRESENTATION('',(#636),#653);
#636 = B_SPLINE_CURVE_WITH_KNOTS('',8,(#637,#638,#639,#640,#641,#642,
    #643,#644,#645,#646,#647,#648,#649,#650,#651,#652),.UNSPECIFIED.,.F.
  ,.F.,(9,7,9),(1.570796326795,3.14159265359,4.712388980385),
  .UNSPECIFIED.);
#637 = CARTESIAN_POINT('',(3.14159265359,1.));
#638 = CARTESIAN_POINT('',(3.337942194439,2.178097245096));
#639 = CARTESIAN_POINT('',(3.53429173529,3.356194769909));
#640 = CARTESIAN_POINT('',(3.730641276136,4.465079567261));
#641 = CARTESIAN_POINT('',(3.926990817004,5.435552503452));
#642 = CARTESIAN_POINT('',(4.123340357834,6.206908278051));
#643 = CARTESIAN_POINT('',(4.319689898688,6.735635344081));
#644 = CARTESIAN_POINT('',(4.516039439535,7.));
#645 = CARTESIAN_POINT('',(4.908738521234,7.));
#646 = CARTESIAN_POINT('',(5.105088062084,6.735635344079));
#647 = CARTESIAN_POINT('',(5.301437602932,6.206908278047));
#648 = CARTESIAN_POINT('',(5.497787143783,5.435552503441));
#649 = CARTESIAN_POINT('',(5.694136684631,4.465079567275));
#650 = CARTESIAN_POINT('',(5.890486225482,3.356194769906));
#651 = CARTESIAN_POINT('',(6.08683576633,2.178097245096));
#652 = CARTESIAN_POINT('',(6.28318530718,1.));
#653 = ( GEOMETRIC_REPRESENTATION_CONTEXT(2) 
PARAMETRIC_REPRESENTATION_CONTEXT() REPRESENTATION_CONTEXT('2D SPACE',''
  ) );
#654 = ORIENTED_EDGE('',*,*,#655,.T.);
#655 = EDGE_CURVE('',#606,#656,#658,.T.);
#656 = VERTEX_POINT('',#657);
#657 = CARTESIAN_POINT('',(-5.656854249492,508.,302.));
#658 = SURFACE_CURVE('',#659,(#664,#674),.PCURVE_S1.);
#659 = ELLIPSE('',#660,8.485281374239,6.);
#660 = AXIS2_PLACEMENT_3D('',#661,#662,#663);
#661 = CARTESIAN_POINT('',(0.,510.,300.));
#662 = DIRECTION('',(0.,0.707106781187,0.707106781187));
#663 = DIRECTION('',(0.,-0.707106781187,0.707106781187));
#664 = PCURVE('',#496,#665);
#665 = DEFINITIONAL_REPRESENTATION('',(#666),#673);
#666 = B_SPLINE_CURVE_WITH_KNOTS('',5,(#667,#668,#669,#670,#671,#672),
  .UNSPECIFIED.,.F.,.F.,(6,6),(4.712388980385,5.052225995905),
  .PIECEWISE_BEZIER_KNOTS.);
#667 = CARTESIAN_POINT('',(3.14159265359,89.));
#668 = CARTESIAN_POINT('',(3.209560056694,89.407804418625));
#669 = CARTESIAN_POINT('',(3.277527459798,89.815608879407));
#670 = CARTESIAN_POINT('',(3.345494862902,90.219488372236));
#671 = CARTESIAN_POINT('',(3.413462266006,90.615518921344));
#672 = CARTESIAN_POINT('',(3.48142966911,91.000000600002));
#673 = ( GEOMETRIC_REPRESENTATION_CONTEXT(2) 
PARAMETRIC_REPRESENTATION_CONTEXT() REPRESENTATION_CONTEXT('2D SPACE',''
  ) );
#674 = PCURVE('',#566,#675);
#675 = DEFINITIONAL_REPRESENTATION('',(#676),#683);
#676 = B_SPLINE_CURVE_WITH_KNOTS('',5,(#677,#678,#679,#680,#681,#682),
  .UNSPECIFIED.,.F.,.F.,(6,6),(4.712388980385,5.052225995905),
  .PIECEWISE_BEZIER_KNOTS.);
#677 = CARTESIAN_POINT('',(3.14159265359,1.));
#678 = CARTESIAN_POINT('',(3.073625250486,1.407804418625));
#679 = CARTESIAN_POINT('',(3.005657847382,1.815608879407));
#680 = CARTESIAN_POINT('',(2.937690444277,2.219488372236));
#681 = CARTESIAN_POINT('',(2.869723041173,2.615518921344));
#682 = CARTESIAN_POINT('',(2.801755638069,3.000000600002));
#683 = ( GEOMETRIC_REPRESENTATION_CONTEXT(2) 
PARAMETRIC_REPRESENTATION_CONTEXT() REPRESENTATION_CONTEXT('2D SPACE',''
  ) );
#684 = ORIENTED_EDGE('',*,*,#685,.F.);
#685 = EDGE_CURVE('',#686,#656,#688,.T.);
#686 = VERTEX_POINT('',#687);
#687 = CARTESIAN_POINT('',(6.,510.,302.));
#688 = SURFACE_CURVE('',#689,(#694,#701),.PCURVE_S1.);
#689 = CIRCLE('',#690,6.);
#690 = AXIS2_PLACEMENT_3D('',#691,#692,#693);
#691 = CARTESIAN_POINT('',(0.,510.,302.));
#692 = DIRECTION('',(0.,0.,1.));
#693 = DIRECTION('',(1.,0.,-0.));
#694 = PCURVE('',#496,#695);
#695 = DEFINITIONAL_REPRESENTATION('',(#696),#700);
#696 = LINE('',#697,#698);
#697 = CARTESIAN_POINT('',(0.,91.));
#698 = VECTOR('',#699,1.);
#699 = DIRECTION('',(1.,0.));
#700 = ( GEOMETRIC_REPRESENTATION_CONTEXT(2) 
PARAMETRIC_REPRESENTATION_CONTEXT() REPRESENTATION_CONTEXT('2D SPACE',''
  ) );
#701 = PCURVE('',#702,#707);
#702 = PLANE('',#703);
#703 = AXIS2_PLACEMENT_3D('',#704,#705,#706);
#704 = CARTESIAN_POINT('',(0.,510.,302.));
#705 = DIRECTION('',(0.,0.,1.));
#706 = DIRECTION('',(1.,0.,-0.));
#707 = DEFINITIONAL_REPRESENTATION('',(#708),#712);
#708 = CIRCLE('',#709,6.);
#709 = AXIS2_PLACEMENT_2D('',#710,#711);
#710 = CARTESIAN_POINT('',(0.,0.));
#711 = DIRECTION('',(1.,0.));
#712 = ( GEOMETRIC_REPRESENTATION_CONTEXT(2) 
PARAMETRIC_REPRESENTATION_CONTEXT() REPRESENTATION_CONTEXT('2D SPACE',''
  ) );
#713 = ORIENTED_EDGE('',*,*,#714,.F.);
#714 = EDGE_CURVE('',#583,#686,#715,.T.);
#715 = SURFACE_CURVE('',#716,(#720,#727),.PCURVE_S1.);
#716 = LINE('',#717,#718);
#717 = CARTESIAN_POINT('',(6.,510.,211.));
#718 = VECTOR('',#719,1.);
#719 = DIRECTION('',(0.,0.,1.));
#720 = PCURVE('',#496,#721);
#721 = DEFINITIONAL_REPRESENTATION('',(#722),#726);
#722 = LINE('',#723,#724);
#723 = CARTESIAN_POINT('',(0.,-0.));
#724 = VECTOR('',#725,1.);
#725 = DIRECTION('',(0.,1.));
#726 = ( GEOMETRIC_REPRESENTATION_CONTEXT(2) 
PARAMETRIC_REPRESENTATION_CONTEXT() REPRESENTATION_CONTEXT('2D SPACE',''
  ) );
#727 = PCURVE('',#728,#733);
#728 = CYLINDRICAL_SURFACE('',#729,6.);
#729 = AXIS2_PLACEMENT_3D('',#730,#731,#732);
#730 = CARTESIAN_POINT('',(0.,510.,211.));
#731 = DIRECTION('',(0.,0.,1.));
#732 = DIRECTION('',(1.,0.,-0.));
#733 = DEFINITIONAL_REPRESENTATION('',(#734),#738);
#734 = LINE('',#735,#736);
#735 = CARTESIAN_POINT('',(6.28318530718,-0.));
#736 = VECTOR('',#737,1.);
#737 = DIRECTION('',(0.,1.));
#738 = ( GEOMETRIC_REPRESENTATION_CONTEXT(2) 
PARAMETRIC_REPRESENTATION_CONTEXT() REPRESENTATION_CONTEXT('2D SPACE',''
  ) );
#739 = ORIENTED_EDGE('',*,*,#582,.F.);
#740 = FACE_BOUND('',#741,.F.);
#741 = EDGE_LOOP('',(#742,#779,#814));
#742 = ORIENTED_EDGE('',*,*,#743,.F.);
#743 = EDGE_CURVE('',#744,#746,#748,.T.);
#744 = VERTEX_POINT('',#745);
#745 = CARTESIAN_POINT('',(6.,510.,300.));
#746 = VERTEX_POINT('',#747);
#747 = CARTESIAN_POINT('',(5.9160797831,511.,299.));
#748 = SURFACE_CURVE('',#749,(#754,#764),.PCURVE_S1.);
#749 = ELLIPSE('',#750,8.485281374239,6.);
#750 = AXIS2_PLACEMENT_3D('',#751,#752,#753);
#751 = CARTESIAN_POINT('',(0.,510.,300.));
#752 = DIRECTION('',(0.,0.707106781187,0.707106781187));
#753 = DIRECTION('',(0.,-0.707106781187,0.707106781187));
#754 = PCURVE('',#496,#755);
#755 = DEFINITIONAL_REPRESENTATION('',(#756),#763);
#756 = B_SPLINE_CURVE_WITH_KNOTS('',5,(#757,#758,#759,#760,#761,#762),
  .UNSPECIFIED.,.F.,.F.,(6,6),(1.570796326795,1.738244507433),
  .PIECEWISE_BEZIER_KNOTS.);
#757 = CARTESIAN_POINT('',(0.,89.));
#758 = CARTESIAN_POINT('',(3.348963612772E-02,88.799062183234));
#759 = CARTESIAN_POINT('',(6.697927225544E-02,88.598124366169));
#760 = CARTESIAN_POINT('',(0.100468908383,88.397656056809));
#761 = CARTESIAN_POINT('',(0.133958544511,88.19812675584));
#762 = CARTESIAN_POINT('',(0.167448180639,87.999999399998));
#763 = ( GEOMETRIC_REPRESENTATION_CONTEXT(2) 
PARAMETRIC_REPRESENTATION_CONTEXT() REPRESENTATION_CONTEXT('2D SPACE',''
  ) );
#764 = PCURVE('',#765,#770);
#765 = CYLINDRICAL_SURFACE('',#766,6.);
#766 = AXIS2_PLACEMENT_3D('',#767,#768,#769);
#767 = CARTESIAN_POINT('',(0.,511.,300.));
#768 = DIRECTION('',(0.,-1.,0.));
#769 = DIRECTION('',(1.,0.,0.));
#770 = DEFINITIONAL_REPRESENTATION('',(#771),#778);
#771 = B_SPLINE_CURVE_WITH_KNOTS('',5,(#772,#773,#774,#775,#776,#777),
  .UNSPECIFIED.,.F.,.F.,(6,6),(1.570796326795,1.738244507433),
  .PIECEWISE_BEZIER_KNOTS.);
#772 = CARTESIAN_POINT('',(6.28318530718,1.));
#773 = CARTESIAN_POINT('',(6.249695671052,0.799062183234));
#774 = CARTESIAN_POINT('',(6.216206034924,0.598124366169));
#775 = CARTESIAN_POINT('',(6.182716398796,0.397656056809));
#776 = CARTESIAN_POINT('',(6.149226762669,0.19812675584));
#777 = CARTESIAN_POINT('',(6.115737126541,-6.000022949593E-07));
#778 = ( GEOMETRIC_REPRESENTATION_CONTEXT(2) 
PARAMETRIC_REPRESENTATION_CONTEXT() REPRESENTATION_CONTEXT('2D SPACE',''
  ) );
#779 = ORIENTED_EDGE('',*,*,#780,.T.);
#780 = EDGE_CURVE('',#744,#781,#783,.T.);
#781 = VERTEX_POINT('',#782);
#782 = CARTESIAN_POINT('',(5.9160797831,511.,301.));
#783 = SURFACE_CURVE('',#784,(#789,#799),.PCURVE_S1.);
#784 = ELLIPSE('',#785,8.485281374239,6.);
#785 = AXIS2_PLACEMENT_3D('',#786,#787,#788);
#786 = CARTESIAN_POINT('',(0.,510.,300.));
#787 = DIRECTION('',(0.,-0.707106781187,0.707106781187));
#788 = DIRECTION('',(0.,0.707106781187,0.707106781187));
#789 = PCURVE('',#496,#790);
#790 = DEFINITIONAL_REPRESENTATION('',(#791),#798);
#791 = B_SPLINE_CURVE_WITH_KNOTS('',5,(#792,#793,#794,#795,#796,#797),
  .UNSPECIFIED.,.F.,.F.,(6,6),(4.712388980385,4.879837161023),
  .PIECEWISE_BEZIER_KNOTS.);
#792 = CARTESIAN_POINT('',(0.,89.));
#793 = CARTESIAN_POINT('',(3.348963612772E-02,89.200937816766));
#794 = CARTESIAN_POINT('',(6.697927225545E-02,89.401875633831));
#795 = CARTESIAN_POINT('',(0.100468908383,89.602343943191));
#796 = CARTESIAN_POINT('',(0.133958544511,89.80187324416));
#797 = CARTESIAN_POINT('',(0.167448180639,90.000000600002));
#798 = ( GEOMETRIC_REPRESENTATION_CONTEXT(2) 
PARAMETRIC_REPRESENTATION_CONTEXT() REPRESENTATION_CONTEXT('2D SPACE',''
  ) );
#799 = PCURVE('',#800,#805);
#800 = CYLINDRICAL_SURFACE('',#801,6.);
#801 = AXIS2_PLACEMENT_3D('',#802,#803,#804);
#802 = CARTESIAN_POINT('',(0.,511.,300.));
#803 = DIRECTION('',(0.,-1.,0.));
#804 = DIRECTION('',(1.,0.,0.));
#805 = DEFINITIONAL_REPRESENTATION('',(#806),#813);
#806 = B_SPLINE_CURVE_WITH_KNOTS('',5,(#807,#808,#809,#810,#811,#812),
  .UNSPECIFIED.,.F.,.F.,(6,6),(4.712388980385,4.879837161023),
  .PIECEWISE_BEZIER_KNOTS.);
#807 = CARTESIAN_POINT('',(0.,1.));
#808 = CARTESIAN_POINT('',(3.348963612772E-02,0.799062183234));
#809 = CARTESIAN_POINT('',(6.697927225545E-02,0.598124366169));
#810 = CARTESIAN_POINT('',(0.100468908383,0.397656056809));
#811 = CARTESIAN_POINT('',(0.133958544511,0.19812675584));
#812 = CARTESIAN_POINT('',(0.167448180639,-6.000022949593E-07));
#813 = ( GEOMETRIC_REPRESENTATION_CONTEXT(2) 
PARAMETRIC_REPRESENTATION_CONTEXT() REPRESENTATION_CONTEXT('2D SPACE',''
  ) );
#814 = ORIENTED_EDGE('',*,*,#815,.F.);
#815 = EDGE_CURVE('',#746,#781,#816,.T.);
#816 = SURFACE_CURVE('',#817,(#821,#827),.PCURVE_S1.);
#817 = LINE('',#818,#819);
#818 = CARTESIAN_POINT('',(5.9160797831,511.,211.));
#819 = VECTOR('',#820,1.);
#820 = DIRECTION('',(0.,0.,1.));
#821 = PCURVE('',#496,#822);
#822 = DEFINITIONAL_REPRESENTATION('',(#823),#826);
#823 = B_SPLINE_CURVE_WITH_KNOTS('',1,(#824,#825),.UNSPECIFIED.,.F.,.F.,
  (2,2),(81.8,91.0000006),.PIECEWISE_BEZIER_KNOTS.);
#824 = CARTESIAN_POINT('',(0.16744807922,81.8));
#825 = CARTESIAN_POINT('',(0.16744807922,91.0000006));
#826 = ( GEOMETRIC_REPRESENTATION_CONTEXT(2) 
PARAMETRIC_REPRESENTATION_CONTEXT() REPRESENTATION_CONTEXT('2D SPACE',''
  ) );
#827 = PCURVE('',#828,#833);
#828 = PLANE('',#829);
#829 = AXIS2_PLACEMENT_3D('',#830,#831,#832);
#830 = CARTESIAN_POINT('',(0.,511.,300.));
#831 = DIRECTION('',(0.,-1.,0.));
#832 = DIRECTION('',(1.,0.,0.));
#833 = DEFINITIONAL_REPRESENTATION('',(#834),#837);
#834 = B_SPLINE_CURVE_WITH_KNOTS('',1,(#835,#836),.UNSPECIFIED.,.F.,.F.,
  (2,2),(81.8,91.0000006),.PIECEWISE_BEZIER_KNOTS.);
#835 = CARTESIAN_POINT('',(5.9160797831,-7.2));
#836 = CARTESIAN_POINT('',(5.9160797831,2.0000006));
#837 = ( GEOMETRIC_REPRESENTATION_CONTEXT(2) 
PARAMETRIC_REPRESENTATION_CONTEXT() REPRESENTATION_CONTEXT('2D SPACE',''
  ) );
#838 = FACE_BOUND('',#839,.F.);
#839 = EDGE_LOOP('',(#840,#877,#907));
#840 = ORIENTED_EDGE('',*,*,#841,.T.);
#841 = EDGE_CURVE('',#842,#844,#846,.T.);
#842 = VERTEX_POINT('',#843);
#843 = CARTESIAN_POINT('',(-5.9160797831,511.,301.));
#844 = VERTEX_POINT('',#845);
#845 = CARTESIAN_POINT('',(-6.,510.,300.));
#846 = SURFACE_CURVE('',#847,(#852,#862),.PCURVE_S1.);
#847 = ELLIPSE('',#848,8.485281374239,6.);
#848 = AXIS2_PLACEMENT_3D('',#849,#850,#851);
#849 = CARTESIAN_POINT('',(0.,510.,300.));
#850 = DIRECTION('',(0.,-0.707106781187,0.707106781187));
#851 = DIRECTION('',(0.,0.707106781187,0.707106781187));
#852 = PCURVE('',#496,#853);
#853 = DEFINITIONAL_REPRESENTATION('',(#854),#861);
#854 = B_SPLINE_CURVE_WITH_KNOTS('',5,(#855,#856,#857,#858,#859,#860),
  .UNSPECIFIED.,.F.,.F.,(6,6),(1.403348146156,1.570796326795),
  .PIECEWISE_BEZIER_KNOTS.);
#855 = CARTESIAN_POINT('',(2.974144472951,90.000000600002));
#856 = CARTESIAN_POINT('',(3.007634109079,89.80187324416));
#857 = CARTESIAN_POINT('',(3.041123745207,89.602343943191));
#858 = CARTESIAN_POINT('',(3.074613381334,89.401875633831));
#859 = CARTESIAN_POINT('',(3.108103017462,89.200937816766));
#860 = CARTESIAN_POINT('',(3.14159265359,89.));
#861 = ( GEOMETRIC_REPRESENTATION_CONTEXT(2) 
PARAMETRIC_REPRESENTATION_CONTEXT() REPRESENTATION_CONTEXT('2D SPACE',''
  ) );
#862 = PCURVE('',#863,#868);
#863 = CYLINDRICAL_SURFACE('',#864,6.);
#864 = AXIS2_PLACEMENT_3D('',#865,#866,#867);
#865 = CARTESIAN_POINT('',(0.,511.,300.));
#866 = DIRECTION('',(0.,-1.,0.));
#867 = DIRECTION('',(1.,0.,0.));
#868 = DEFINITIONAL_REPRESENTATION('',(#869),#876);
#869 = B_SPLINE_CURVE_WITH_KNOTS('',5,(#870,#871,#872,#873,#874,#875),
  .UNSPECIFIED.,.F.,.F.,(6,6),(1.403348146156,1.570796326795),
  .PIECEWISE_BEZIER_KNOTS.);
#870 = CARTESIAN_POINT('',(2.974144472951,-6.000022949593E-07));
#871 = CARTESIAN_POINT('',(3.007634109079,0.19812675584));
#872 = CARTESIAN_POINT('',(3.041123745207,0.397656056809));
#873 = CARTESIAN_POINT('',(3.074613381334,0.598124366169));
#874 = CARTESIAN_POINT('',(3.108103017462,0.799062183234));
#875 = CARTESIAN_POINT('',(3.14159265359,1.));
#876 = ( GEOMETRIC_REPRESENTATION_CONTEXT(2) 
PARAMETRIC_REPRESENTATION_CONTEXT() REPRESENTATION_CONTEXT('2D SPACE',''
  ) );
#877 = ORIENTED_EDGE('',*,*,#878,.F.);
#878 = EDGE_CURVE('',#879,#844,#881,.T.);
#879 = VERTEX_POINT('',#880);
#880 = CARTESIAN_POINT('',(-5.9160797831,511.,299.));
#881 = SURFACE_CURVE('',#882,(#887,#897),.PCURVE_S1.);
#882 = ELLIPSE('',#883,8.485281374239,6.);
#883 = AXIS2_PLACEMENT_3D('',#884,#885,#886);
#884 = CARTESIAN_POINT('',(0.,510.,300.));
#885 = DIRECTION('',(0.,0.707106781187,0.707106781187));
#886 = DIRECTION('',(0.,-0.707106781187,0.707106781187));
#887 = PCURVE('',#496,#888);
#888 = DEFINITIONAL_REPRESENTATION('',(#889),#896);
#889 = B_SPLINE_CURVE_WITH_KNOTS('',5,(#890,#891,#892,#893,#894,#895),
  .UNSPECIFIED.,.F.,.F.,(6,6),(4.544940799746,4.712388980385),
  .PIECEWISE_BEZIER_KNOTS.);
#890 = CARTESIAN_POINT('',(2.974144472951,87.999999399998));
#891 = CARTESIAN_POINT('',(3.007634109079,88.19812675584));
#892 = CARTESIAN_POINT('',(3.041123745207,88.397656056809));
#893 = CARTESIAN_POINT('',(3.074613381334,88.598124366169));
#894 = CARTESIAN_POINT('',(3.108103017462,88.799062183234));
#895 = CARTESIAN_POINT('',(3.14159265359,89.));
#896 = ( GEOMETRIC_REPRESENTATION_CONTEXT(2) 
PARAMETRIC_REPRESENTATION_CONTEXT() REPRESENTATION_CONTEXT('2D SPACE',''
  ) );
#897 = PCURVE('',#863,#898);
#898 = DEFINITIONAL_REPRESENTATION('',(#899),#906);
#899 = B_SPLINE_CURVE_WITH_KNOTS('',5,(#900,#901,#902,#903,#904,#905),
  .UNSPECIFIED.,.F.,.F.,(6,6),(4.544940799746,4.712388980385),
  .PIECEWISE_BEZIER_KNOTS.);
#900 = CARTESIAN_POINT('',(3.309040834228,-6.000022949593E-07));
#901 = CARTESIAN_POINT('',(3.275551198101,0.19812675584));
#902 = CARTESIAN_POINT('',(3.242061561973,0.397656056809));
#903 = CARTESIAN_POINT('',(3.208571925845,0.598124366169));
#904 = CARTESIAN_POINT('',(3.175082289718,0.799062183234));
#905 = CARTESIAN_POINT('',(3.14159265359,1.));
#906 = ( GEOMETRIC_REPRESENTATION_CONTEXT(2) 
PARAMETRIC_REPRESENTATION_CONTEXT() REPRESENTATION_CONTEXT('2D SPACE',''
  ) );
#907 = ORIENTED_EDGE('',*,*,#908,.T.);
#908 = EDGE_CURVE('',#879,#842,#909,.T.);
#909 = SURFACE_CURVE('',#910,(#914,#920),.PCURVE_S1.);
#910 = LINE('',#911,#912);
#911 = CARTESIAN_POINT('',(-5.9160797831,511.,211.));
#912 = VECTOR('',#913,1.);
#913 = DIRECTION('',(0.,0.,1.));
#914 = PCURVE('',#496,#915);
#915 = DEFINITIONAL_REPRESENTATION('',(#916),#919);
#916 = B_SPLINE_CURVE_WITH_KNOTS('',1,(#917,#918),.UNSPECIFIED.,.F.,.F.,
  (2,2),(81.8,91.0000006),.PIECEWISE_BEZIER_KNOTS.);
#917 = CARTESIAN_POINT('',(2.97414457437,81.8));
#918 = CARTESIAN_POINT('',(2.97414457437,91.0000006));
#919 = ( GEOMETRIC_REPRESENTATION_CONTEXT(2) 
PARAMETRIC_REPRESENTATION_CONTEXT() REPRESENTATION_CONTEXT('2D SPACE',''
  ) );
#920 = PCURVE('',#921,#926);
#921 = PLANE('',#922);
#922 = AXIS2_PLACEMENT_3D('',#923,#924,#925);
#923 = CARTESIAN_POINT('',(0.,511.,300.));
#924 = DIRECTION('',(0.,-1.,0.));
#925 = DIRECTION('',(1.,0.,0.));
#926 = DEFINITIONAL_REPRESENTATION('',(#927),#930);
#927 = B_SPLINE_CURVE_WITH_KNOTS('',1,(#928,#929),.UNSPECIFIED.,.F.,.F.,
  (2,2),(81.8,91.0000006),.PIECEWISE_BEZIER_KNOTS.);
#928 = CARTESIAN_POINT('',(-5.9160797831,-7.2));
#929 = CARTESIAN_POINT('',(-5.9160797831,2.0000006));
#930 = ( GEOMETRIC_REPRESENTATION_CONTEXT(2) 
PARAMETRIC_REPRESENTATION_CONTEXT() REPRESENTATION_CONTEXT('2D SPACE',''
  ) );
#931 = ADVANCED_FACE('',(#932),#531,.T.);
#932 = FACE_BOUND('',#933,.T.);
#933 = EDGE_LOOP('',(#934,#957,#958,#959));
#934 = ORIENTED_EDGE('',*,*,#935,.T.);
#935 = EDGE_CURVE('',#936,#515,#938,.T.);
#936 = VERTEX_POINT('',#937);
#937 = CARTESIAN_POINT('',(4.,544.,300.));
#938 = SEAM_CURVE('',#939,(#943,#950),.PCURVE_S1.);
#939 = LINE('',#940,#941);
#940 = CARTESIAN_POINT('',(4.,546.,300.));
#941 = VECTOR('',#942,1.);
#942 = DIRECTION('',(0.,-1.,0.));
#943 = PCURVE('',#531,#944);
#944 = DEFINITIONAL_REPRESENTATION('',(#945),#949);
#945 = LINE('',#946,#947);
#946 = CARTESIAN_POINT('',(6.28318530718,-0.));
#947 = VECTOR('',#948,1.);
#948 = DIRECTION('',(0.,1.));
#949 = ( GEOMETRIC_REPRESENTATION_CONTEXT(2) 
PARAMETRIC_REPRESENTATION_CONTEXT() REPRESENTATION_CONTEXT('2D SPACE',''
  ) );
#950 = PCURVE('',#531,#951);
#951 = DEFINITIONAL_REPRESENTATION('',(#952),#956);
#952 = LINE('',#953,#954);
#953 = CARTESIAN_POINT('',(0.,-0.));
#954 = VECTOR('',#955,1.);
#955 = DIRECTION('',(0.,1.));
#956 = ( GEOMETRIC_REPRESENTATION_CONTEXT(2) 
PARAMETRIC_REPRESENTATION_CONTEXT() REPRESENTATION_CONTEXT('2D SPACE',''
  ) );
#957 = ORIENTED_EDGE('',*,*,#514,.F.);
#958 = ORIENTED_EDGE('',*,*,#935,.F.);
#959 = ORIENTED_EDGE('',*,*,#960,.T.);
#960 = EDGE_CURVE('',#936,#936,#961,.T.);
#961 = SURFACE_CURVE('',#962,(#967,#974),.PCURVE_S1.);
#962 = CIRCLE('',#963,4.);
#963 = AXIS2_PLACEMENT_3D('',#964,#965,#966);
#964 = CARTESIAN_POINT('',(0.,544.,300.));
#965 = DIRECTION('',(0.,-1.,0.));
#966 = DIRECTION('',(1.,0.,0.));
#967 = PCURVE('',#531,#968);
#968 = DEFINITIONAL_REPRESENTATION('',(#969),#973);
#969 = LINE('',#970,#971);
#970 = CARTESIAN_POINT('',(0.,2.));
#971 = VECTOR('',#972,1.);
#972 = DIRECTION('',(1.,0.));
#973 = ( GEOMETRIC_REPRESENTATION_CONTEXT(2) 
PARAMETRIC_REPRESENTATION_CONTEXT() REPRESENTATION_CONTEXT('2D SPACE',''
  ) );
#974 = PCURVE('',#975,#980);
#975 = PLANE('',#976);
#976 = AXIS2_PLACEMENT_3D('',#977,#978,#979);
#977 = CARTESIAN_POINT('',(-25.,544.,294.));
#978 = DIRECTION('',(-0.,1.,0.));
#979 = DIRECTION('',(0.,0.,1.));
#980 = DEFINITIONAL_REPRESENTATION('',(#981),#989);
#981 = ( BOUNDED_CURVE() B_SPLINE_CURVE(2,(#982,#983,#984,#985,#986,#987
,#988),.UNSPECIFIED.,.T.,.F.) B_SPLINE_CURVE_WITH_KNOTS((1,2,2,2,2,1),(
    -2.094395102393,0.,2.094395102393,4.188790204786,6.28318530718,
8.377580409573),.UNSPECIFIED.) CURVE() GEOMETRIC_REPRESENTATION_ITEM() 
RATIONAL_B_SPLINE_CURVE((1.,0.5,1.,0.5,1.,0.5,1.)) REPRESENTATION_ITEM(
  '') );
#982 = CARTESIAN_POINT('',(6.,29.));
#983 = CARTESIAN_POINT('',(12.928203230276,29.));
#984 = CARTESIAN_POINT('',(9.464101615138,23.));
#985 = CARTESIAN_POINT('',(6.,17.));
#986 = CARTESIAN_POINT('',(2.535898384862,23.));
#987 = CARTESIAN_POINT('',(-0.928203230276,29.));
#988 = CARTESIAN_POINT('',(6.,29.));
#989 = ( GEOMETRIC_REPRESENTATION_CONTEXT(2) 
PARAMETRIC_REPRESENTATION_CONTEXT() REPRESENTATION_CONTEXT('2D SPACE',''
  ) );
#990 = ADVANCED_FACE('',(#991),#566,.F.);
#991 = FACE_BOUND('',#992,.F.);
#992 = EDGE_LOOP('',(#993,#994,#1015,#1045,#1066,#1095,#1114,#1115,#1116
    ));
#993 = ORIENTED_EDGE('',*,*,#549,.F.);
#994 = ORIENTED_EDGE('',*,*,#995,.F.);
#995 = EDGE_CURVE('',#583,#550,#996,.T.);
#996 = SEAM_CURVE('',#997,(#1001,#1008),.PCURVE_S1.);
#997 = LINE('',#998,#999);
#998 = CARTESIAN_POINT('',(6.,511.,300.));
#999 = VECTOR('',#1000,1.);
#1000 = DIRECTION('',(0.,-1.,0.));
#1001 = PCURVE('',#566,#1002);
#1002 = DEFINITIONAL_REPRESENTATION('',(#1003),#1007);
#1003 = LINE('',#1004,#1005);
#1004 = CARTESIAN_POINT('',(6.28318530718,-0.));
#1005 = VECTOR('',#1006,1.);
#1006 = DIRECTION('',(0.,1.));
#1007 = ( GEOMETRIC_REPRESENTATION_CONTEXT(2) 
PARAMETRIC_REPRESENTATION_CONTEXT() REPRESENTATION_CONTEXT('2D SPACE',''
  ) );
#1008 = PCURVE('',#566,#1009);
#1009 = DEFINITIONAL_REPRESENTATION('',(#1010),#1014);
#1010 = LINE('',#1011,#1012);
#1011 = CARTESIAN_POINT('',(0.,-0.));
#1012 = VECTOR('',#1013,1.);
#1013 = DIRECTION('',(0.,1.));
#1014 = ( GEOMETRIC_REPRESENTATION_CONTEXT(2) 
PARAMETRIC_REPRESENTATION_CONTEXT() REPRESENTATION_CONTEXT('2D SPACE',''
  ) );
#1015 = ORIENTED_EDGE('',*,*,#1016,.F.);
#1016 = EDGE_CURVE('',#1017,#583,#1019,.T.);
#1017 = VERTEX_POINT('',#1018);
#1018 = CARTESIAN_POINT('',(5.656854249492,508.,302.));
#1019 = SURFACE_CURVE('',#1020,(#1025,#1035),.PCURVE_S1.);
#1020 = ELLIPSE('',#1021,8.485281374239,6.);
#1021 = AXIS2_PLACEMENT_3D('',#1022,#1023,#1024);
#1022 = CARTESIAN_POINT('',(0.,510.,300.));
#1023 = DIRECTION('',(0.,0.707106781187,0.707106781187));
#1024 = DIRECTION('',(0.,-0.707106781187,0.707106781187));
#1025 = PCURVE('',#566,#1026);
#1026 = DEFINITIONAL_REPRESENTATION('',(#1027),#1034);
#1027 = B_SPLINE_CURVE_WITH_KNOTS('',5,(#1028,#1029,#1030,#1031,#1032,
    #1033),.UNSPECIFIED.,.F.,.F.,(6,6),(1.230959311274,1.570796326795),
  .PIECEWISE_BEZIER_KNOTS.);
#1028 = CARTESIAN_POINT('',(0.339837015521,3.000000600002));
#1029 = CARTESIAN_POINT('',(0.271869612416,2.615518921344));
#1030 = CARTESIAN_POINT('',(0.203902209312,2.219488372236));
#1031 = CARTESIAN_POINT('',(0.135934806208,1.815608879407));
#1032 = CARTESIAN_POINT('',(6.796740310412E-02,1.407804418625));
#1033 = CARTESIAN_POINT('',(0.,1.));
#1034 = ( GEOMETRIC_REPRESENTATION_CONTEXT(2) 
PARAMETRIC_REPRESENTATION_CONTEXT() REPRESENTATION_CONTEXT('2D SPACE',''
  ) );
#1035 = PCURVE('',#728,#1036);
#1036 = DEFINITIONAL_REPRESENTATION('',(#1037),#1044);
#1037 = B_SPLINE_CURVE_WITH_KNOTS('',5,(#1038,#1039,#1040,#1041,#1042,
    #1043),.UNSPECIFIED.,.F.,.F.,(6,6),(1.230959311274,1.570796326795),
  .PIECEWISE_BEZIER_KNOTS.);
#1038 = CARTESIAN_POINT('',(5.943348291659,91.000000600002));
#1039 = CARTESIAN_POINT('',(6.011315694763,90.615518921344));
#1040 = CARTESIAN_POINT('',(6.079283097867,90.219488372236));
#1041 = CARTESIAN_POINT('',(6.147250500971,89.815608879407));
#1042 = CARTESIAN_POINT('',(6.215217904075,89.407804418625));
#1043 = CARTESIAN_POINT('',(6.28318530718,89.));
#1044 = ( GEOMETRIC_REPRESENTATION_CONTEXT(2) 
PARAMETRIC_REPRESENTATION_CONTEXT() REPRESENTATION_CONTEXT('2D SPACE',''
  ) );
#1045 = ORIENTED_EDGE('',*,*,#1046,.F.);
#1046 = EDGE_CURVE('',#1047,#1017,#1049,.T.);
#1047 = VERTEX_POINT('',#1048);
#1048 = CARTESIAN_POINT('',(5.656854249492,511.,302.));
#1049 = SURFACE_CURVE('',#1050,(#1054,#1060),.PCURVE_S1.);
#1050 = LINE('',#1051,#1052);
#1051 = CARTESIAN_POINT('',(5.656854249492,511.,302.));
#1052 = VECTOR('',#1053,1.);
#1053 = DIRECTION('',(0.,-1.,0.));
#1054 = PCURVE('',#566,#1055);
#1055 = DEFINITIONAL_REPRESENTATION('',(#1056),#1059);
#1056 = B_SPLINE_CURVE_WITH_KNOTS('',1,(#1057,#1058),.UNSPECIFIED.,.F.,
  .F.,(2,2),(-6.000000212225E-07,8.2),.PIECEWISE_BEZIER_KNOTS.);
#1057 = CARTESIAN_POINT('',(0.339836909454,-6.000000212225E-07));
#1058 = CARTESIAN_POINT('',(0.339836909454,8.2));
#1059 = ( GEOMETRIC_REPRESENTATION_CONTEXT(2) 
PARAMETRIC_REPRESENTATION_CONTEXT() REPRESENTATION_CONTEXT('2D SPACE',''
  ) );
#1060 = PCURVE('',#702,#1061);
#1061 = DEFINITIONAL_REPRESENTATION('',(#1062),#1065);
#1062 = B_SPLINE_CURVE_WITH_KNOTS('',1,(#1063,#1064),.UNSPECIFIED.,.F.,
  .F.,(2,2),(-6.000000212225E-07,8.2),.PIECEWISE_BEZIER_KNOTS.);
#1063 = CARTESIAN_POINT('',(5.656854249492,1.0000006));
#1064 = CARTESIAN_POINT('',(5.656854249492,-7.2));
#1065 = ( GEOMETRIC_REPRESENTATION_CONTEXT(2) 
PARAMETRIC_REPRESENTATION_CONTEXT() REPRESENTATION_CONTEXT('2D SPACE',''
  ) );
#1066 = ORIENTED_EDGE('',*,*,#1067,.T.);
#1067 = EDGE_CURVE('',#1047,#1068,#1070,.T.);
#1068 = VERTEX_POINT('',#1069);
#1069 = CARTESIAN_POINT('',(-5.656854249492,511.,302.));
#1070 = SURFACE_CURVE('',#1071,(#1076,#1083),.PCURVE_S1.);
#1071 = CIRCLE('',#1072,6.);
#1072 = AXIS2_PLACEMENT_3D('',#1073,#1074,#1075);
#1073 = CARTESIAN_POINT('',(0.,511.,300.));
#1074 = DIRECTION('',(0.,-1.,0.));
#1075 = DIRECTION('',(1.,0.,0.));
#1076 = PCURVE('',#566,#1077);
#1077 = DEFINITIONAL_REPRESENTATION('',(#1078),#1082);
#1078 = LINE('',#1079,#1080);
#1079 = CARTESIAN_POINT('',(0.,0.));
#1080 = VECTOR('',#1081,1.);
#1081 = DIRECTION('',(1.,0.));
#1082 = ( GEOMETRIC_REPRESENTATION_CONTEXT(2) 
PARAMETRIC_REPRESENTATION_CONTEXT() REPRESENTATION_CONTEXT('2D SPACE',''
  ) );
#1083 = PCURVE('',#1084,#1089);
#1084 = PLANE('',#1085);
#1085 = AXIS2_PLACEMENT_3D('',#1086,#1087,#1088);
#1086 = CARTESIAN_POINT('',(0.,511.,300.));
#1087 = DIRECTION('',(0.,-1.,0.));
#1088 = DIRECTION('',(1.,0.,0.));
#1089 = DEFINITIONAL_REPRESENTATION('',(#1090),#1094);
#1090 = CIRCLE('',#1091,6.);
#1091 = AXIS2_PLACEMENT_2D('',#1092,#1093);
#1092 = CARTESIAN_POINT('',(0.,0.));
#1093 = DIRECTION('',(1.,0.));
#1094 = ( GEOMETRIC_REPRESENTATION_CONTEXT(2) 
PARAMETRIC_REPRESENTATION_CONTEXT() REPRESENTATION_CONTEXT('2D SPACE',''
  ) );
#1095 = ORIENTED_EDGE('',*,*,#1096,.T.);
#1096 = EDGE_CURVE('',#1068,#656,#1097,.T.);
#1097 = SURFACE_CURVE('',#1098,(#1102,#1108),.PCURVE_S1.);
#1098 = LINE('',#1099,#1100);
#1099 = CARTESIAN_POINT('',(-5.656854249492,511.,302.));
#1100 = VECTOR('',#1101,1.);
#1101 = DIRECTION('',(0.,-1.,0.));
#1102 = PCURVE('',#566,#1103);
#1103 = DEFINITIONAL_REPRESENTATION('',(#1104),#1107);
#1104 = B_SPLINE_CURVE_WITH_KNOTS('',1,(#1105,#1106),.UNSPECIFIED.,.F.,
  .F.,(2,2),(-6.000000212225E-07,8.2),.PIECEWISE_BEZIER_KNOTS.);
#1105 = CARTESIAN_POINT('',(2.801755744136,-6.000000212225E-07));
#1106 = CARTESIAN_POINT('',(2.801755744136,8.2));
#1107 = ( GEOMETRIC_REPRESENTATION_CONTEXT(2) 
PARAMETRIC_REPRESENTATION_CONTEXT() REPRESENTATION_CONTEXT('2D SPACE',''
  ) );
#1108 = PCURVE('',#702,#1109);
#1109 = DEFINITIONAL_REPRESENTATION('',(#1110),#1113);
#1110 = B_SPLINE_CURVE_WITH_KNOTS('',1,(#1111,#1112),.UNSPECIFIED.,.F.,
  .F.,(2,2),(-6.000000212225E-07,8.2),.PIECEWISE_BEZIER_KNOTS.);
#1111 = CARTESIAN_POINT('',(-5.656854249492,1.0000006));
#1112 = CARTESIAN_POINT('',(-5.656854249492,-7.2));
#1113 = ( GEOMETRIC_REPRESENTATION_CONTEXT(2) 
PARAMETRIC_REPRESENTATION_CONTEXT() REPRESENTATION_CONTEXT('2D SPACE',''
  ) );
#1114 = ORIENTED_EDGE('',*,*,#655,.F.);
#1115 = ORIENTED_EDGE('',*,*,#605,.T.);
#1116 = ORIENTED_EDGE('',*,*,#995,.T.);
#1117 = ADVANCED_FACE('',(#1118),#728,.F.);
#1118 = FACE_BOUND('',#1119,.F.);
#1119 = EDGE_LOOP('',(#1120,#1121,#1122));
#1120 = ORIENTED_EDGE('',*,*,#1016,.T.);
#1121 = ORIENTED_EDGE('',*,*,#714,.T.);
#1122 = ORIENTED_EDGE('',*,*,#1123,.F.);
#1123 = EDGE_CURVE('',#1017,#686,#1124,.T.);
#1124 = SURFACE_CURVE('',#1125,(#1130,#1137),.PCURVE_S1.);
#1125 = CIRCLE('',#1126,6.);
#1126 = AXIS2_PLACEMENT_3D('',#1127,#1128,#1129);
#1127 = CARTESIAN_POINT('',(0.,510.,302.));
#1128 = DIRECTION('',(0.,0.,1.));
#1129 = DIRECTION('',(1.,0.,-0.));
#1130 = PCURVE('',#728,#1131);
#1131 = DEFINITIONAL_REPRESENTATION('',(#1132),#1136);
#1132 = LINE('',#1133,#1134);
#1133 = CARTESIAN_POINT('',(0.,91.));
#1134 = VECTOR('',#1135,1.);
#1135 = DIRECTION('',(1.,0.));
#1136 = ( GEOMETRIC_REPRESENTATION_CONTEXT(2) 
PARAMETRIC_REPRESENTATION_CONTEXT() REPRESENTATION_CONTEXT('2D SPACE',''
  ) );
#1137 = PCURVE('',#702,#1138);
#1138 = DEFINITIONAL_REPRESENTATION('',(#1139),#1143);
#1139 = CIRCLE('',#1140,6.);
#1140 = AXIS2_PLACEMENT_2D('',#1141,#1142);
#1141 = CARTESIAN_POINT('',(0.,0.));
#1142 = DIRECTION('',(1.,0.));
#1143 = ( GEOMETRIC_REPRESENTATION_CONTEXT(2) 
PARAMETRIC_REPRESENTATION_CONTEXT() REPRESENTATION_CONTEXT('2D SPACE',''
  ) );
#1144 = ADVANCED_FACE('',(#1145),#702,.F.);
#1145 = FACE_BOUND('',#1146,.F.);
#1146 = EDGE_LOOP('',(#1147,#1148,#1149,#1150,#1169));
#1147 = ORIENTED_EDGE('',*,*,#1123,.T.);
#1148 = ORIENTED_EDGE('',*,*,#685,.T.);
#1149 = ORIENTED_EDGE('',*,*,#1096,.F.);
#1150 = ORIENTED_EDGE('',*,*,#1151,.T.);
#1151 = EDGE_CURVE('',#1068,#1047,#1152,.T.);
#1152 = SURFACE_CURVE('',#1153,(#1157,#1163),.PCURVE_S1.);
#1153 = LINE('',#1154,#1155);
#1154 = CARTESIAN_POINT('',(0.,511.,302.));
#1155 = VECTOR('',#1156,1.);
#1156 = DIRECTION('',(1.,0.,-0.));
#1157 = PCURVE('',#702,#1158);
#1158 = DEFINITIONAL_REPRESENTATION('',(#1159),#1162);
#1159 = B_SPLINE_CURVE_WITH_KNOTS('',1,(#1160,#1161),.UNSPECIFIED.,.F.,
  .F.,(2,2),(-6.,6.),.PIECEWISE_BEZIER_KNOTS.);
#1160 = CARTESIAN_POINT('',(-6.,1.));
#1161 = CARTESIAN_POINT('',(6.,1.));
#1162 = ( GEOMETRIC_REPRESENTATION_CONTEXT(2) 
PARAMETRIC_REPRESENTATION_CONTEXT() REPRESENTATION_CONTEXT('2D SPACE',''
  ) );
#1163 = PCURVE('',#1084,#1164);
#1164 = DEFINITIONAL_REPRESENTATION('',(#1165),#1168);
#1165 = B_SPLINE_CURVE_WITH_KNOTS('',1,(#1166,#1167),.UNSPECIFIED.,.F.,
  .F.,(2,2),(-6.,6.),.PIECEWISE_BEZIER_KNOTS.);
#1166 = CARTESIAN_POINT('',(-6.,2.));
#1167 = CARTESIAN_POINT('',(6.,2.));
#1168 = ( GEOMETRIC_REPRESENTATION_CONTEXT(2) 
PARAMETRIC_REPRESENTATION_CONTEXT() REPRESENTATION_CONTEXT('2D SPACE',''
  ) );
#1169 = ORIENTED_EDGE('',*,*,#1046,.T.);
#1170 = ADVANCED_FACE('',(#1171),#765,.F.);
#1171 = FACE_BOUND('',#1172,.F.);
#1172 = EDGE_LOOP('',(#1173,#1196,#1197));
#1173 = ORIENTED_EDGE('',*,*,#1174,.T.);
#1174 = EDGE_CURVE('',#1175,#583,#1177,.T.);
#1175 = VERTEX_POINT('',#1176);
#1176 = CARTESIAN_POINT('',(6.,511.,300.));
#1177 = SURFACE_CURVE('',#1178,(#1182,#1189),.PCURVE_S1.);
#1178 = LINE('',#1179,#1180);
#1179 = CARTESIAN_POINT('',(6.,511.,300.));
#1180 = VECTOR('',#1181,1.);
#1181 = DIRECTION('',(0.,-1.,0.));
#1182 = PCURVE('',#765,#1183);
#1183 = DEFINITIONAL_REPRESENTATION('',(#1184),#1188);
#1184 = LINE('',#1185,#1186);
#1185 = CARTESIAN_POINT('',(6.28318530718,-0.));
#1186 = VECTOR('',#1187,1.);
#1187 = DIRECTION('',(0.,1.));
#1188 = ( GEOMETRIC_REPRESENTATION_CONTEXT(2) 
PARAMETRIC_REPRESENTATION_CONTEXT() REPRESENTATION_CONTEXT('2D SPACE',''
  ) );
#1189 = PCURVE('',#800,#1190);
#1190 = DEFINITIONAL_REPRESENTATION('',(#1191),#1195);
#1191 = LINE('',#1192,#1193);
#1192 = CARTESIAN_POINT('',(0.,-0.));
#1193 = VECTOR('',#1194,1.);
#1194 = DIRECTION('',(0.,1.));
#1195 = ( GEOMETRIC_REPRESENTATION_CONTEXT(2) 
PARAMETRIC_REPRESENTATION_CONTEXT() REPRESENTATION_CONTEXT('2D SPACE',''
  ) );
#1196 = ORIENTED_EDGE('',*,*,#743,.T.);
#1197 = ORIENTED_EDGE('',*,*,#1198,.T.);
#1198 = EDGE_CURVE('',#746,#1175,#1199,.T.);
#1199 = SURFACE_CURVE('',#1200,(#1205,#1212),.PCURVE_S1.);
#1200 = CIRCLE('',#1201,6.);
#1201 = AXIS2_PLACEMENT_3D('',#1202,#1203,#1204);
#1202 = CARTESIAN_POINT('',(0.,511.,300.));
#1203 = DIRECTION('',(0.,-1.,0.));
#1204 = DIRECTION('',(1.,0.,0.));
#1205 = PCURVE('',#765,#1206);
#1206 = DEFINITIONAL_REPRESENTATION('',(#1207),#1211);
#1207 = LINE('',#1208,#1209);
#1208 = CARTESIAN_POINT('',(0.,0.));
#1209 = VECTOR('',#1210,1.);
#1210 = DIRECTION('',(1.,0.));
#1211 = ( GEOMETRIC_REPRESENTATION_CONTEXT(2) 
PARAMETRIC_REPRESENTATION_CONTEXT() REPRESENTATION_CONTEXT('2D SPACE',''
  ) );
#1212 = PCURVE('',#828,#1213);
#1213 = DEFINITIONAL_REPRESENTATION('',(#1214),#1218);
#1214 = CIRCLE('',#1215,6.);
#1215 = AXIS2_PLACEMENT_2D('',#1216,#1217);
#1216 = CARTESIAN_POINT('',(0.,0.));
#1217 = DIRECTION('',(1.,0.));
#1218 = ( GEOMETRIC_REPRESENTATION_CONTEXT(2) 
PARAMETRIC_REPRESENTATION_CONTEXT() REPRESENTATION_CONTEXT('2D SPACE',''
  ) );
#1219 = ADVANCED_FACE('',(#1220),#828,.T.);
#1220 = FACE_BOUND('',#1221,.T.);
#1221 = EDGE_LOOP('',(#1222,#1223,#1245));
#1222 = ORIENTED_EDGE('',*,*,#1198,.T.);
#1223 = ORIENTED_EDGE('',*,*,#1224,.T.);
#1224 = EDGE_CURVE('',#1175,#781,#1225,.T.);
#1225 = SURFACE_CURVE('',#1226,(#1231,#1238),.PCURVE_S1.);
#1226 = CIRCLE('',#1227,6.);
#1227 = AXIS2_PLACEMENT_3D('',#1228,#1229,#1230);
#1228 = CARTESIAN_POINT('',(0.,511.,300.));
#1229 = DIRECTION('',(0.,-1.,0.));
#1230 = DIRECTION('',(1.,0.,0.));
#1231 = PCURVE('',#828,#1232);
#1232 = DEFINITIONAL_REPRESENTATION('',(#1233),#1237);
#1233 = CIRCLE('',#1234,6.);
#1234 = AXIS2_PLACEMENT_2D('',#1235,#1236);
#1235 = CARTESIAN_POINT('',(0.,0.));
#1236 = DIRECTION('',(1.,0.));
#1237 = ( GEOMETRIC_REPRESENTATION_CONTEXT(2) 
PARAMETRIC_REPRESENTATION_CONTEXT() REPRESENTATION_CONTEXT('2D SPACE',''
  ) );
#1238 = PCURVE('',#800,#1239);
#1239 = DEFINITIONAL_REPRESENTATION('',(#1240),#1244);
#1240 = LINE('',#1241,#1242);
#1241 = CARTESIAN_POINT('',(0.,0.));
#1242 = VECTOR('',#1243,1.);
#1243 = DIRECTION('',(1.,0.));
#1244 = ( GEOMETRIC_REPRESENTATION_CONTEXT(2) 
PARAMETRIC_REPRESENTATION_CONTEXT() REPRESENTATION_CONTEXT('2D SPACE',''
  ) );
#1245 = ORIENTED_EDGE('',*,*,#815,.F.);
#1246 = ADVANCED_FACE('',(#1247),#800,.F.);
#1247 = FACE_BOUND('',#1248,.F.);
#1248 = EDGE_LOOP('',(#1249,#1250,#1251));
#1249 = ORIENTED_EDGE('',*,*,#780,.F.);
#1250 = ORIENTED_EDGE('',*,*,#1174,.F.);
#1251 = ORIENTED_EDGE('',*,*,#1224,.T.);
#1252 = ADVANCED_FACE('',(#1253),#863,.F.);
#1253 = FACE_BOUND('',#1254,.F.);
#1254 = EDGE_LOOP('',(#1255,#1256,#1257));
#1255 = ORIENTED_EDGE('',*,*,#878,.T.);
#1256 = ORIENTED_EDGE('',*,*,#841,.F.);
#1257 = ORIENTED_EDGE('',*,*,#1258,.T.);
#1258 = EDGE_CURVE('',#842,#879,#1259,.T.);
#1259 = SURFACE_CURVE('',#1260,(#1265,#1272),.PCURVE_S1.);
#1260 = CIRCLE('',#1261,6.);
#1261 = AXIS2_PLACEMENT_3D('',#1262,#1263,#1264);
#1262 = CARTESIAN_POINT('',(0.,511.,300.));
#1263 = DIRECTION('',(0.,-1.,0.));
#1264 = DIRECTION('',(1.,0.,0.));
#1265 = PCURVE('',#863,#1266);
#1266 = DEFINITIONAL_REPRESENTATION('',(#1267),#1271);
#1267 = LINE('',#1268,#1269);
#1268 = CARTESIAN_POINT('',(0.,0.));
#1269 = VECTOR('',#1270,1.);
#1270 = DIRECTION('',(1.,0.));
#1271 = ( GEOMETRIC_REPRESENTATION_CONTEXT(2) 
PARAMETRIC_REPRESENTATION_CONTEXT() REPRESENTATION_CONTEXT('2D SPACE',''
  ) );
#1272 = PCURVE('',#921,#1273);
#1273 = DEFINITIONAL_REPRESENTATION('',(#1274),#1278);
#1274 = CIRCLE('',#1275,6.);
#1275 = AXIS2_PLACEMENT_2D('',#1276,#1277);
#1276 = CARTESIAN_POINT('',(0.,0.));
#1277 = DIRECTION('',(1.,0.));
#1278 = ( GEOMETRIC_REPRESENTATION_CONTEXT(2) 
PARAMETRIC_REPRESENTATION_CONTEXT() REPRESENTATION_CONTEXT('2D SPACE',''
  ) );
#1279 = ADVANCED_FACE('',(#1280),#921,.T.);
#1280 = FACE_BOUND('',#1281,.T.);
#1281 = EDGE_LOOP('',(#1282,#1283));
#1282 = ORIENTED_EDGE('',*,*,#1258,.T.);
#1283 = ORIENTED_EDGE('',*,*,#908,.T.);
#1284 = ADVANCED_FACE('',(#1285,#1399),#975,.F.);
#1285 = FACE_BOUND('',#1286,.F.);
#1286 = EDGE_LOOP('',(#1287,#1317,#1345,#1373));
#1287 = ORIENTED_EDGE('',*,*,#1288,.F.);
#1288 = EDGE_CURVE('',#1289,#1291,#1293,.T.);
#1289 = VERTEX_POINT('',#1290);
#1290 = CARTESIAN_POINT('',(-25.,544.,294.));
#1291 = VERTEX_POINT('',#1292);
#1292 = CARTESIAN_POINT('',(25.,544.,294.));
#1293 = SURFACE_CURVE('',#1294,(#1298,#1305),.PCURVE_S1.);
#1294 = LINE('',#1295,#1296);
#1295 = CARTESIAN_POINT('',(-25.,544.,294.));
#1296 = VECTOR('',#1297,1.);
#1297 = DIRECTION('',(1.,0.,-0.));
#1298 = PCURVE('',#975,#1299);
#1299 = DEFINITIONAL_REPRESENTATION('',(#1300),#1304);
#1300 = LINE('',#1301,#1302);
#1301 = CARTESIAN_POINT('',(0.,0.));
#1302 = VECTOR('',#1303,1.);
#1303 = DIRECTION('',(0.,1.));
#1304 = ( GEOMETRIC_REPRESENTATION_CONTEXT(2) 
PARAMETRIC_REPRESENTATION_CONTEXT() REPRESENTATION_CONTEXT('2D SPACE',''
  ) );
#1305 = PCURVE('',#1306,#1311);
#1306 = PLANE('',#1307);
#1307 = AXIS2_PLACEMENT_3D('',#1308,#1309,#1310);
#1308 = CARTESIAN_POINT('',(-25.,544.,294.));
#1309 = DIRECTION('',(0.,0.,1.));
#1310 = DIRECTION('',(1.,0.,-0.));
#1311 = DEFINITIONAL_REPRESENTATION('',(#1312),#1316);
#1312 = LINE('',#1313,#1314);
#1313 = CARTESIAN_POINT('',(0.,0.));
#1314 = VECTOR('',#1315,1.);
#1315 = DIRECTION('',(1.,0.));
#1316 = ( GEOMETRIC_REPRESENTATION_CONTEXT(2) 
PARAMETRIC_REPRESENTATION_CONTEXT() REPRESENTATION_CONTEXT('2D SPACE',''
  ) );
#1317 = ORIENTED_EDGE('',*,*,#1318,.T.);
#1318 = EDGE_CURVE('',#1289,#1319,#1321,.T.);
#1319 = VERTEX_POINT('',#1320);
#1320 = CARTESIAN_POINT('',(-25.,544.,306.));
#1321 = SURFACE_CURVE('',#1322,(#1326,#1333),.PCURVE_S1.);
#1322 = LINE('',#1323,#1324);
#1323 = CARTESIAN_POINT('',(-25.,544.,294.));
#1324 = VECTOR('',#1325,1.);
#1325 = DIRECTION('',(0.,0.,1.));
#1326 = PCURVE('',#975,#1327);
#1327 = DEFINITIONAL_REPRESENTATION('',(#1328),#1332);
#1328 = LINE('',#1329,#1330);
#1329 = CARTESIAN_POINT('',(0.,0.));
#1330 = VECTOR('',#1331,1.);
#1331 = DIRECTION('',(1.,0.));
#1332 = ( GEOMETRIC_REPRESENTATION_CONTEXT(2) 
PARAMETRIC_REPRESENTATION_CONTEXT() REPRESENTATION_CONTEXT('2D SPACE',''
  ) );
#1333 = PCURVE('',#1334,#1339);
#1334 = PLANE('',#1335);
#1335 = AXIS2_PLACEMENT_3D('',#1336,#1337,#1338);
#1336 = CARTESIAN_POINT('',(-25.,544.,294.));
#1337 = DIRECTION('',(1.,0.,-0.));
#1338 = DIRECTION('',(0.,0.,1.));
#1339 = DEFINITIONAL_REPRESENTATION('',(#1340),#1344);
#1340 = LINE('',#1341,#1342);
#1341 = CARTESIAN_POINT('',(0.,0.));
#1342 = VECTOR('',#1343,1.);
#1343 = DIRECTION('',(1.,0.));
#1344 = ( GEOMETRIC_REPRESENTATION_CONTEXT(2) 
PARAMETRIC_REPRESENTATION_CONTEXT() REPRESENTATION_CONTEXT('2D SPACE',''
  ) );
#1345 = ORIENTED_EDGE('',*,*,#1346,.T.);
#1346 = EDGE_CURVE('',#1319,#1347,#1349,.T.);
#1347 = VERTEX_POINT('',#1348);
#1348 = CARTESIAN_POINT('',(25.,544.,306.));
#1349 = SURFACE_CURVE('',#1350,(#1354,#1361),.PCURVE_S1.);
#1350 = LINE('',#1351,#1352);
#1351 = CARTESIAN_POINT('',(-25.,544.,306.));
#1352 = VECTOR('',#1353,1.);
#1353 = DIRECTION('',(1.,0.,-0.));
#1354 = PCURVE('',#975,#1355);
#1355 = DEFINITIONAL_REPRESENTATION('',(#1356),#1360);
#1356 = LINE('',#1357,#1358);
#1357 = CARTESIAN_POINT('',(12.,0.));
#1358 = VECTOR('',#1359,1.);
#1359 = DIRECTION('',(0.,1.));
#1360 = ( GEOMETRIC_REPRESENTATION_CONTEXT(2) 
PARAMETRIC_REPRESENTATION_CONTEXT() REPRESENTATION_CONTEXT('2D SPACE',''
  ) );
#1361 = PCURVE('',#1362,#1367);
#1362 = PLANE('',#1363);
#1363 = AXIS2_PLACEMENT_3D('',#1364,#1365,#1366);
#1364 = CARTESIAN_POINT('',(-25.,544.,306.));
#1365 = DIRECTION('',(0.,0.,1.));
#1366 = DIRECTION('',(1.,0.,-0.));
#1367 = DEFINITIONAL_REPRESENTATION('',(#1368),#1372);
#1368 = LINE('',#1369,#1370);
#1369 = CARTESIAN_POINT('',(0.,0.));
#1370 = VECTOR('',#1371,1.);
#1371 = DIRECTION('',(1.,0.));
#1372 = ( GEOMETRIC_REPRESENTATION_CONTEXT(2) 
PARAMETRIC_REPRESENTATION_CONTEXT() REPRESENTATION_CONTEXT('2D SPACE',''
  ) );
#1373 = ORIENTED_EDGE('',*,*,#1374,.F.);
#1374 = EDGE_CURVE('',#1291,#1347,#1375,.T.);
#1375 = SURFACE_CURVE('',#1376,(#1380,#1387),.PCURVE_S1.);
#1376 = LINE('',#1377,#1378);
#1377 = CARTESIAN_POINT('',(25.,544.,294.));
#1378 = VECTOR('',#1379,1.);
#1379 = DIRECTION('',(0.,0.,1.));
#1380 = PCURVE('',#975,#1381);
#1381 = DEFINITIONAL_REPRESENTATION('',(#1382),#1386);
#1382 = LINE('',#1383,#1384);
#1383 = CARTESIAN_POINT('',(0.,50.));
#1384 = VECTOR('',#1385,1.);
#1385 = DIRECTION('',(1.,0.));
#1386 = ( GEOMETRIC_REPRESENTATION_CONTEXT(2) 
PARAMETRIC_REPRESENTATION_CONTEXT() REPRESENTATION_CONTEXT('2D SPACE',''
  ) );
#1387 = PCURVE('',#1388,#1393);
#1388 = PLANE('',#1389);
#1389 = AXIS2_PLACEMENT_3D('',#1390,#1391,#1392);
#1390 = CARTESIAN_POINT('',(25.,544.,294.));
#1391 = DIRECTION('',(1.,0.,-0.));
#1392 = DIRECTION('',(0.,0.,1.));
#1393 = DEFINITIONAL_REPRESENTATION('',(#1394),#1398);
#1394 = LINE('',#1395,#1396);
#1395 = CARTESIAN_POINT('',(0.,0.));
#1396 = VECTOR('',#1397,1.);
#1397 = DIRECTION('',(1.,0.));
#1398 = ( GEOMETRIC_REPRESENTATION_CONTEXT(2) 
PARAMETRIC_REPRESENTATION_CONTEXT() REPRESENTATION_CONTEXT('2D SPACE',''
  ) );
#1399 = FACE_BOUND('',#1400,.F.);
#1400 = EDGE_LOOP('',(#1401));
#1401 = ORIENTED_EDGE('',*,*,#960,.T.);
#1402 = ADVANCED_FACE('',(#1403),#1084,.T.);
#1403 = FACE_BOUND('',#1404,.T.);
#1404 = EDGE_LOOP('',(#1405,#1406));
#1405 = ORIENTED_EDGE('',*,*,#1151,.T.);
#1406 = ORIENTED_EDGE('',*,*,#1067,.T.);
#1407 = ADVANCED_FACE('',(#1408),#1306,.F.);
#1408 = FACE_BOUND('',#1409,.F.);
#1409 = EDGE_LOOP('',(#1410,#1433,#1434,#1457));
#1410 = ORIENTED_EDGE('',*,*,#1411,.F.);
#1411 = EDGE_CURVE('',#1289,#1412,#1414,.T.);
#1412 = VERTEX_POINT('',#1413);
#1413 = CARTESIAN_POINT('',(-25.,552.,294.));
#1414 = SURFACE_CURVE('',#1415,(#1419,#1426),.PCURVE_S1.);
#1415 = LINE('',#1416,#1417);
#1416 = CARTESIAN_POINT('',(-25.,544.,294.));
#1417 = VECTOR('',#1418,1.);
#1418 = DIRECTION('',(-0.,1.,0.));
#1419 = PCURVE('',#1306,#1420);
#1420 = DEFINITIONAL_REPRESENTATION('',(#1421),#1425);
#1421 = LINE('',#1422,#1423);
#1422 = CARTESIAN_POINT('',(0.,0.));
#1423 = VECTOR('',#1424,1.);
#1424 = DIRECTION('',(0.,1.));
#1425 = ( GEOMETRIC_REPRESENTATION_CONTEXT(2) 
PARAMETRIC_REPRESENTATION_CONTEXT() REPRESENTATION_CONTEXT('2D SPACE',''
  ) );
#1426 = PCURVE('',#1334,#1427);
#1427 = DEFINITIONAL_REPRESENTATION('',(#1428),#1432);
#1428 = LINE('',#1429,#1430);
#1429 = CARTESIAN_POINT('',(0.,0.));
#1430 = VECTOR('',#1431,1.);
#1431 = DIRECTION('',(0.,-1.));
#1432 = ( GEOMETRIC_REPRESENTATION_CONTEXT(2) 
PARAMETRIC_REPRESENTATION_CONTEXT() REPRESENTATION_CONTEXT('2D SPACE',''
  ) );
#1433 = ORIENTED_EDGE('',*,*,#1288,.T.);
#1434 = ORIENTED_EDGE('',*,*,#1435,.T.);
#1435 = EDGE_CURVE('',#1291,#1436,#1438,.T.);
#1436 = VERTEX_POINT('',#1437);
#1437 = CARTESIAN_POINT('',(25.,552.,294.));
#1438 = SURFACE_CURVE('',#1439,(#1443,#1450),.PCURVE_S1.);
#1439 = LINE('',#1440,#1441);
#1440 = CARTESIAN_POINT('',(25.,544.,294.));
#1441 = VECTOR('',#1442,1.);
#1442 = DIRECTION('',(-0.,1.,0.));
#1443 = PCURVE('',#1306,#1444);
#1444 = DEFINITIONAL_REPRESENTATION('',(#1445),#1449);
#1445 = LINE('',#1446,#1447);
#1446 = CARTESIAN_POINT('',(50.,0.));
#1447 = VECTOR('',#1448,1.);
#1448 = DIRECTION('',(0.,1.));
#1449 = ( GEOMETRIC_REPRESENTATION_CONTEXT(2) 
PARAMETRIC_REPRESENTATION_CONTEXT() REPRESENTATION_CONTEXT('2D SPACE',''
  ) );
#1450 = PCURVE('',#1388,#1451);
#1451 = DEFINITIONAL_REPRESENTATION('',(#1452),#1456);
#1452 = LINE('',#1453,#1454);
#1453 = CARTESIAN_POINT('',(0.,0.));
#1454 = VECTOR('',#1455,1.);
#1455 = DIRECTION('',(0.,-1.));
#1456 = ( GEOMETRIC_REPRESENTATION_CONTEXT(2) 
PARAMETRIC_REPRESENTATION_CONTEXT() REPRESENTATION_CONTEXT('2D SPACE',''
  ) );
#1457 = ORIENTED_EDGE('',*,*,#1458,.F.);
#1458 = EDGE_CURVE('',#1412,#1436,#1459,.T.);
#1459 = SURFACE_CURVE('',#1460,(#1464,#1471),.PCURVE_S1.);
#1460 = LINE('',#1461,#1462);
#1461 = CARTESIAN_POINT('',(-25.,552.,294.));
#1462 = VECTOR('',#1463,1.);
#1463 = DIRECTION('',(1.,0.,-0.));
#1464 = PCURVE('',#1306,#1465);
#1465 = DEFINITIONAL_REPRESENTATION('',(#1466),#1470);
#1466 = LINE('',#1467,#1468);
#1467 = CARTESIAN_POINT('',(0.,8.));
#1468 = VECTOR('',#1469,1.);
#1469 = DIRECTION('',(1.,0.));
#1470 = ( GEOMETRIC_REPRESENTATION_CONTEXT(2) 
PARAMETRIC_REPRESENTATION_CONTEXT() REPRESENTATION_CONTEXT('2D SPACE',''
  ) );
#1471 = PCURVE('',#1472,#1477);
#1472 = PLANE('',#1473);
#1473 = AXIS2_PLACEMENT_3D('',#1474,#1475,#1476);
#1474 = CARTESIAN_POINT('',(-25.,552.,294.));
#1475 = DIRECTION('',(-0.,1.,0.));
#1476 = DIRECTION('',(0.,0.,1.));
#1477 = DEFINITIONAL_REPRESENTATION('',(#1478),#1482);
#1478 = LINE('',#1479,#1480);
#1479 = CARTESIAN_POINT('',(0.,0.));
#1480 = VECTOR('',#1481,1.);
#1481 = DIRECTION('',(0.,1.));
#1482 = ( GEOMETRIC_REPRESENTATION_CONTEXT(2) 
PARAMETRIC_REPRESENTATION_CONTEXT() REPRESENTATION_CONTEXT('2D SPACE',''
  ) );
#1483 = ADVANCED_FACE('',(#1484),#1388,.T.);
#1484 = FACE_BOUND('',#1485,.T.);
#1485 = EDGE_LOOP('',(#1486,#1487,#1488,#1511));
#1486 = ORIENTED_EDGE('',*,*,#1374,.F.);
#1487 = ORIENTED_EDGE('',*,*,#1435,.T.);
#1488 = ORIENTED_EDGE('',*,*,#1489,.T.);
#1489 = EDGE_CURVE('',#1436,#1490,#1492,.T.);
#1490 = VERTEX_POINT('',#1491);
#1491 = CARTESIAN_POINT('',(25.,552.,306.));
#1492 = SURFACE_CURVE('',#1493,(#1497,#1504),.PCURVE_S1.);
#1493 = LINE('',#1494,#1495);
#1494 = CARTESIAN_POINT('',(25.,552.,294.));
#1495 = VECTOR('',#1496,1.);
#1496 = DIRECTION('',(0.,0.,1.));
#1497 = PCURVE('',#1388,#1498);
#1498 = DEFINITIONAL_REPRESENTATION('',(#1499),#1503);
#1499 = LINE('',#1500,#1501);
#1500 = CARTESIAN_POINT('',(0.,-8.));
#1501 = VECTOR('',#1502,1.);
#1502 = DIRECTION('',(1.,0.));
#1503 = ( GEOMETRIC_REPRESENTATION_CONTEXT(2) 
PARAMETRIC_REPRESENTATION_CONTEXT() REPRESENTATION_CONTEXT('2D SPACE',''
  ) );
#1504 = PCURVE('',#1472,#1505);
#1505 = DEFINITIONAL_REPRESENTATION('',(#1506),#1510);
#1506 = LINE('',#1507,#1508);
#1507 = CARTESIAN_POINT('',(0.,50.));
#1508 = VECTOR('',#1509,1.);
#1509 = DIRECTION('',(1.,0.));
#1510 = ( GEOMETRIC_REPRESENTATION_CONTEXT(2) 
PARAMETRIC_REPRESENTATION_CONTEXT() REPRESENTATION_CONTEXT('2D SPACE',''
  ) );
#1511 = ORIENTED_EDGE('',*,*,#1512,.F.);
#1512 = EDGE_CURVE('',#1347,#1490,#1513,.T.);
#1513 = SURFACE_CURVE('',#1514,(#1518,#1525),.PCURVE_S1.);
#1514 = LINE('',#1515,#1516);
#1515 = CARTESIAN_POINT('',(25.,544.,306.));
#1516 = VECTOR('',#1517,1.);
#1517 = DIRECTION('',(-0.,1.,0.));
#1518 = PCURVE('',#1388,#1519);
#1519 = DEFINITIONAL_REPRESENTATION('',(#1520),#1524);
#1520 = LINE('',#1521,#1522);
#1521 = CARTESIAN_POINT('',(12.,0.));
#1522 = VECTOR('',#1523,1.);
#1523 = DIRECTION('',(0.,-1.));
#1524 = ( GEOMETRIC_REPRESENTATION_CONTEXT(2) 
PARAMETRIC_REPRESENTATION_CONTEXT() REPRESENTATION_CONTEXT('2D SPACE',''
  ) );
#1525 = PCURVE('',#1362,#1526);
#1526 = DEFINITIONAL_REPRESENTATION('',(#1527),#1531);
#1527 = LINE('',#1528,#1529);
#1528 = CARTESIAN_POINT('',(50.,0.));
#1529 = VECTOR('',#1530,1.);
#1530 = DIRECTION('',(0.,1.));
#1531 = ( GEOMETRIC_REPRESENTATION_CONTEXT(2) 
PARAMETRIC_REPRESENTATION_CONTEXT() REPRESENTATION_CONTEXT('2D SPACE',''
  ) );
#1532 = ADVANCED_FACE('',(#1533),#1334,.F.);
#1533 = FACE_BOUND('',#1534,.F.);
#1534 = EDGE_LOOP('',(#1535,#1536,#1537,#1560));
#1535 = ORIENTED_EDGE('',*,*,#1318,.F.);
#1536 = ORIENTED_EDGE('',*,*,#1411,.T.);
#1537 = ORIENTED_EDGE('',*,*,#1538,.T.);
#1538 = EDGE_CURVE('',#1412,#1539,#1541,.T.);
#1539 = VERTEX_POINT('',#1540);
#1540 = CARTESIAN_POINT('',(-25.,552.,306.));
#1541 = SURFACE_CURVE('',#1542,(#1546,#1553),.PCURVE_S1.);
#1542 = LINE('',#1543,#1544);
#1543 = CARTESIAN_POINT('',(-25.,552.,294.));
#1544 = VECTOR('',#1545,1.);
#1545 = DIRECTION('',(0.,0.,1.));
#1546 = PCURVE('',#1334,#1547);
#1547 = DEFINITIONAL_REPRESENTATION('',(#1548),#1552);
#1548 = LINE('',#1549,#1550);
#1549 = CARTESIAN_POINT('',(0.,-8.));
#1550 = VECTOR('',#1551,1.);
#1551 = DIRECTION('',(1.,0.));
#1552 = ( GEOMETRIC_REPRESENTATION_CONTEXT(2) 
PARAMETRIC_REPRESENTATION_CONTEXT() REPRESENTATION_CONTEXT('2D SPACE',''
  ) );
#1553 = PCURVE('',#1472,#1554);
#1554 = DEFINITIONAL_REPRESENTATION('',(#1555),#1559);
#1555 = LINE('',#1556,#1557);
#1556 = CARTESIAN_POINT('',(0.,0.));
#1557 = VECTOR('',#1558,1.);
#1558 = DIRECTION('',(1.,0.));
#1559 = ( GEOMETRIC_REPRESENTATION_CONTEXT(2) 
PARAMETRIC_REPRESENTATION_CONTEXT() REPRESENTATION_CONTEXT('2D SPACE',''
  ) );
#1560 = ORIENTED_EDGE('',*,*,#1561,.F.);
#1561 = EDGE_CURVE('',#1319,#1539,#1562,.T.);
#1562 = SURFACE_CURVE('',#1563,(#1567,#1574),.PCURVE_S1.);
#1563 = LINE('',#1564,#1565);
#1564 = CARTESIAN_POINT('',(-25.,544.,306.));
#1565 = VECTOR('',#1566,1.);
#1566 = DIRECTION('',(-0.,1.,0.));
#1567 = PCURVE('',#1334,#1568);
#1568 = DEFINITIONAL_REPRESENTATION('',(#1569),#1573);
#1569 = LINE('',#1570,#1571);
#1570 = CARTESIAN_POINT('',(12.,0.));
#1571 = VECTOR('',#1572,1.);
#1572 = DIRECTION('',(0.,-1.));
#1573 = ( GEOMETRIC_REPRESENTATION_CONTEXT(2) 
PARAMETRIC_REPRESENTATION_CONTEXT() REPRESENTATION_CONTEXT('2D SPACE',''
  ) );
#1574 = PCURVE('',#1362,#1575);
#1575 = DEFINITIONAL_REPRESENTATION('',(#1576),#1580);
#1576 = LINE('',#1577,#1578);
#1577 = CARTESIAN_POINT('',(0.,0.));
#1578 = VECTOR('',#1579,1.);
#1579 = DIRECTION('',(0.,1.));
#1580 = ( GEOMETRIC_REPRESENTATION_CONTEXT(2) 
PARAMETRIC_REPRESENTATION_CONTEXT() REPRESENTATION_CONTEXT('2D SPACE',''
  ) );
#1581 = ADVANCED_FACE('',(#1582),#1362,.T.);
#1582 = FACE_BOUND('',#1583,.T.);
#1583 = EDGE_LOOP('',(#1584,#1585,#1586,#1587));
#1584 = ORIENTED_EDGE('',*,*,#1561,.F.);
#1585 = ORIENTED_EDGE('',*,*,#1346,.T.);
#1586 = ORIENTED_EDGE('',*,*,#1512,.T.);
#1587 = ORIENTED_EDGE('',*,*,#1588,.F.);
#1588 = EDGE_CURVE('',#1539,#1490,#1589,.T.);
#1589 = SURFACE_CURVE('',#1590,(#1594,#1601),.PCURVE_S1.);
#1590 = LINE('',#1591,#1592);
#1591 = CARTESIAN_POINT('',(-25.,552.,306.));
#1592 = VECTOR('',#1593,1.);
#1593 = DIRECTION('',(1.,0.,-0.));
#1594 = PCURVE('',#1362,#1595);
#1595 = DEFINITIONAL_REPRESENTATION('',(#1596),#1600);
#1596 = LINE('',#1597,#1598);
#1597 = CARTESIAN_POINT('',(0.,8.));
#1598 = VECTOR('',#1599,1.);
#1599 = DIRECTION('',(1.,0.));
#1600 = ( GEOMETRIC_REPRESENTATION_CONTEXT(2) 
PARAMETRIC_REPRESENTATION_CONTEXT() REPRESENTATION_CONTEXT('2D SPACE',''
  ) );
#1601 = PCURVE('',#1472,#1602);
#1602 = DEFINITIONAL_REPRESENTATION('',(#1603),#1607);
#1603 = LINE('',#1604,#1605);
#1604 = CARTESIAN_POINT('',(12.,0.));
#1605 = VECTOR('',#1606,1.);
#1606 = DIRECTION('',(0.,1.));
#1607 = ( GEOMETRIC_REPRESENTATION_CONTEXT(2) 
PARAMETRIC_REPRESENTATION_CONTEXT() REPRESENTATION_CONTEXT('2D SPACE',''
  ) );
#1608 = ADVANCED_FACE('',(#1609),#1472,.T.);
#1609 = FACE_BOUND('',#1610,.T.);
#1610 = EDGE_LOOP('',(#1611,#1612,#1613,#1614));
#1611 = ORIENTED_EDGE('',*,*,#1458,.F.);
#1612 = ORIENTED_EDGE('',*,*,#1538,.T.);
#1613 = ORIENTED_EDGE('',*,*,#1588,.T.);
#1614 = ORIENTED_EDGE('',*,*,#1489,.F.);
#1615 = ( GEOMETRIC_REPRESENTATION_CONTEXT(3) 
GLOBAL_UNCERTAINTY_ASSIGNED_CONTEXT((#1619)) 
GLOBAL_UNIT_ASSIGNED_CONTEXT((#1616,#1617,#1618)) REPRESENTATION_CONTEXT
('Context #1','3D Context with UNIT and UNCERTAINTY') );
#1616 = ( LENGTH_UNIT() NAMED_UNIT(*) SI_UNIT(.MILLI.,.METRE.) );
#1617 = ( NAMED_UNIT(*) PLANE_ANGLE_UNIT() SI_UNIT($,.RADIAN.) );
#1618 = ( NAMED_UNIT(*) SI_UNIT($,.STERADIAN.) SOLID_ANGLE_UNIT() );
#1619 = UNCERTAINTY_MEASURE_WITH_UNIT(LENGTH_MEASURE(1.E-07),#1616,
  'distance_accuracy_value','confusion accuracy');
#1620 = PRODUCT_RELATED_PRODUCT_CATEGORY('part',$,(#7));
ENDSEC;
END-ISO-10303-21;
