<svg xmlns="http://www.w3.org/2000/svg" width="420.0mm" height="297.0mm"
 viewBox="0 0 420.0 297.0" font-family="Arial, sans-serif" fill="#111">
<defs><marker id="arr" viewBox="0 0 6 6" refX="3" refY="3" markerWidth="5"
 markerHeight="5" orient="auto-start-reverse">
 <path d="M0,0 L6,3 L0,6 z" fill="#444"/></marker></defs>
<rect width="420.0" height="297.0" fill="white"/>
<rect x="4" y="4" width="412.0" height="289.0" fill="none"
 stroke="#333" stroke-width="0.6"/>
<text x="12.0" y="11" font-size="6" font-weight="bold">feeder_tray</text>
<text x="408.0" y="11" font-size="4.5" text-anchor="end"
 fill="#666">Beekeeping DTL - Digital Twin - third-angle projection</text>
<rect x="12.0" y="14" width="186.0" height="118.0" fill="none" stroke="#bbb" stroke-width="0.2"/><text x="15.0" y="20" font-size="4.6" fill="#666">FRONT (X-Y)</text><svg x="26.7" y="43.3" width="156.6" height="59.4"  viewBox="-66.440533 -37.377725 120.457035 45.689659" version="1.1" xmlns="http://www.w3.org/2000/svg">
  <g transform="scale(1,-1)" stroke-linecap="round">
    <g fill="none" stroke="rgb(0,0,0)" stroke-width="0.09" id="visible">
      <line x1="-66.265533" y1="-8.13563" x2="-66.158306" y2="-7.770865" />
      <line x1="-66.158306" y1="-7.770865" x2="-66.158306" y2="12.228765" />
      <line x1="-66.265533" y1="11.864001" x2="-66.158306" y2="12.228765" />
      <line x1="-66.265533" y1="-8.13563" x2="-66.265533" y2="11.864001" />
      <line x1="-66.265533" y1="-8.13563" x2="53.734275" y2="-8.136934" />
      <line x1="53.734275" y1="-8.136934" x2="53.841502" y2="-7.772169" />
      <line x1="53.834354" y1="12.227461" x2="53.834354" y2="37.202682" />
      <line x1="53.841502" y1="-7.772169" x2="53.841502" y2="12.227461" />
      <line x1="49.83436" y1="12.227505" x2="49.83436" y2="37.202725" />
      <line x1="49.83436" y1="37.202725" x2="53.834354" y2="37.202682" />
      <line x1="49.762876" y1="12.227506" x2="49.762876" y2="36.959549" />
      <line x1="49.74143" y1="36.886596" x2="49.762876" y2="36.959549" />
      <line x1="49.74143" y1="12.227506" x2="49.74143" y2="36.886596" />
      <line x1="49.812915" y1="37.129772" x2="49.83436" y2="37.202725" />
      <line x1="49.812915" y1="12.227505" x2="49.812915" y2="37.129772" />
      <line x1="49.762876" y1="36.959549" x2="49.812915" y2="36.959548" />
      <line x1="-66.158306" y1="12.228765" x2="53.841502" y2="12.227461" />
      <line x1="-66.158306" y1="-7.770865" x2="53.841502" y2="-7.772169" />
    </g>
    <g fill="none" stroke="rgb(119,119,119)" stroke-width="0.2" id="hidden" stroke-dasharray="2.4 0.6">
      <line x1="-66.265533" y1="11.864001" x2="53.734275" y2="11.862697" />
      <line x1="53.734275" y1="-8.136934" x2="53.734275" y2="11.862697" />
      <line x1="53.734275" y1="11.862697" x2="53.741424" y2="11.887014" />
      <line x1="53.741424" y1="11.887014" x2="53.741424" y2="36.886552" />
      <line x1="53.741424" y1="36.886552" x2="53.762869" y2="36.959505" />
      <line x1="53.762869" y1="11.959967" x2="53.762869" y2="36.959505" />
      <line x1="53.762869" y1="11.959967" x2="53.812908" y2="12.130191" />
      <line x1="53.812908" y1="12.130191" x2="53.812908" y2="37.129729" />
      <line x1="53.812908" y1="37.129729" x2="53.834354" y2="37.202682" />
      <line x1="53.834354" y1="12.203144" x2="53.834354" y2="12.227461" />
      <line x1="53.834354" y1="12.203144" x2="53.841502" y2="12.227461" />
      <line x1="49.83436" y1="-5.79648" x2="49.83436" y2="12.227505" />
      <line x1="51.834357" y1="12.203165" x2="53.834354" y2="12.203144" />
      <line x1="51.834357" y1="12.203165" x2="51.834357" y2="-5.796502" />
      <line x1="49.83436" y1="-5.79648" x2="51.834357" y2="-5.796502" />
      <line x1="49.74143" y1="-6.112609" x2="51.741427" y2="-6.112631" />
      <line x1="49.762876" y1="-6.039657" x2="49.74143" y2="-6.112609" />
      <line x1="49.762876" y1="-6.039657" x2="51.762872" y2="-6.039678" />
      <line x1="51.762872" y1="-6.039678" x2="51.812912" y2="-5.869455" />
      <line x1="49.812915" y1="-5.869433" x2="51.812912" y2="-5.869455" />
      <line x1="49.83436" y1="-5.79648" x2="49.812915" y2="-5.869433" />
      <line x1="-64.161883" y1="-5.783083" x2="51.837931" y2="-5.784343" />
      <line x1="-64.261962" y1="-6.12353" x2="-64.161883" y2="-5.783083" />
      <line x1="-64.261962" y1="-6.12353" x2="51.737853" y2="-6.12479" />
      <line x1="-64.261962" y1="-6.12353" x2="-64.261962" y2="11.876138" />
      <line x1="-64.261962" y1="11.876138" x2="51.737853" y2="11.874877" />
      <line x1="51.737853" y1="-6.12479" x2="51.737853" y2="11.874877" />
      <line x1="-64.161883" y1="-5.783083" x2="-64.161883" y2="12.216585" />
      <line x1="-64.161883" y1="12.216585" x2="-64.261962" y2="11.876138" />
      <line x1="-64.161883" y1="12.216585" x2="51.837931" y2="12.215324" />
      <line x1="51.837931" y1="-5.784343" x2="51.837931" y2="12.215324" />
      <line x1="51.812912" y1="12.130213" x2="51.812912" y2="-5.869455" />
      <line x1="51.812912" y1="12.130213" x2="51.762872" y2="11.959989" />
      <line x1="51.762872" y1="11.959989" x2="51.762872" y2="-6.039678" />
      <line x1="49.762876" y1="-6.039657" x2="49.762876" y2="12.227506" />
      <line x1="49.74143" y1="-6.112609" x2="49.74143" y2="12.227506" />
      <line x1="51.741427" y1="11.887036" x2="51.741427" y2="-6.112631" />
      <line x1="49.812915" y1="-5.869433" x2="49.812915" y2="12.227505" />
      <line x1="49.812915" y1="37.129772" x2="53.812908" y2="37.129729" />
      <line x1="51.812912" y1="12.130213" x2="53.812908" y2="12.130191" />
      <line x1="51.762872" y1="11.959989" x2="53.762869" y2="11.959967" />
      <line x1="49.812915" y1="36.959548" x2="53.762869" y2="36.959505" />
      <line x1="49.74143" y1="36.886596" x2="53.741424" y2="36.886552" />
      <line x1="51.741427" y1="11.887036" x2="53.741424" y2="11.887014" />
    </g>
  </g>
</svg><line x1="26.7" y1="108.7" x2="183.3" y2="108.7" stroke="#444" stroke-width="0.25" marker-start="url(#arr)" marker-end="url(#arr)"/><text x="105.0" y="107.1" font-size="4.2" text-anchor="middle">120.0</text><line x1="189.3" y1="43.3" x2="189.3" y2="102.7" stroke="#444" stroke-width="0.25" marker-start="url(#arr)" marker-end="url(#arr)"/><text x="193.8" y="73.0" font-size="4.2" text-anchor="middle" transform="rotate(90 193.8 73.0)">45.0</text><rect x="206.0" y="14" width="186.0" height="118.0" fill="none" stroke="#bbb" stroke-width="0.2"/><text x="209.0" y="20" font-size="4.6" fill="#666">SIDE (Z-Y)</text><svg x="259.8" y="43.0" width="78.5" height="59.9"  viewBox="-30.175 -37.547785 60.35 46.080003" version="1.1" xmlns="http://www.w3.org/2000/svg">
  <g transform="scale(1,-1)" stroke-linecap="round">
    <g fill="none" stroke="rgb(0,0,0)" stroke-width="0.09" id="visible">
      <line x1="30.0" y1="-8.357218" x2="-30.0" y2="-8.357218" />
      <line x1="30.0" y1="-7.626381" x2="30.0" y2="12.373248" />
      <line x1="30.0" y1="-8.357218" x2="30.0" y2="-7.626381" />
      <line x1="30.0" y1="-7.626381" x2="-30.0" y2="-7.626381" />
      <line x1="30.0" y1="12.373248" x2="26.0" y2="12.373248" />
      <line x1="26.0" y1="12.373248" x2="26.0" y2="37.372785" />
      <line x1="26.0" y1="37.372785" x2="14.0" y2="37.372785" />
      <line x1="14.0" y1="12.373248" x2="14.0" y2="37.372785" />
      <line x1="14.0" y1="12.373248" x2="-14.0" y2="12.373248" />
      <line x1="-14.0" y1="12.373248" x2="-14.0" y2="37.372785" />
      <line x1="-14.0" y1="37.372785" x2="-26.0" y2="37.372785" />
      <line x1="-26.0" y1="12.373248" x2="-26.0" y2="37.372785" />
      <line x1="-26.0" y1="12.373248" x2="-30.0" y2="12.373248" />
      <line x1="-30.0" y1="-7.626381" x2="-30.0" y2="12.373248" />
      <line x1="-30.0" y1="-8.357218" x2="-30.0" y2="-7.626381" />
    </g>
    <g fill="none" stroke="rgb(119,119,119)" stroke-width="0.2" id="hidden" stroke-dasharray="2.4 0.6">
      <line x1="-30.0" y1="-8.357218" x2="-30.0" y2="11.642411" />
      <line x1="30.0" y1="11.642411" x2="-30.0" y2="11.642411" />
      <line x1="30.0" y1="-8.357218" x2="30.0" y2="11.642411" />
      <line x1="30.0" y1="11.642411" x2="30.0" y2="12.373248" />
      <line x1="-26.0" y1="-5.650779" x2="-26.0" y2="37.348423" />
      <line x1="-26.0" y1="37.348423" x2="-26.0" y2="37.372785" />
      <line x1="-26.0" y1="12.361068" x2="-26.0" y2="-5.638599" />
      <line x1="28.0" y1="-5.638599" x2="26.0" y2="-5.638599" />
      <line x1="14.0" y1="-5.650779" x2="26.0" y2="-5.650779" />
      <line x1="14.0" y1="-5.638599" x2="-14.0" y2="-5.638599" />
      <line x1="-26.0" y1="-5.650779" x2="-14.0" y2="-5.650779" />
      <line x1="-26.0" y1="-5.638599" x2="-28.0" y2="-5.638599" />
      <line x1="-28.0" y1="-6.345075" x2="-28.0" y2="-5.638599" />
      <line x1="28.0" y1="-6.345075" x2="-28.0" y2="-6.345075" />
      <line x1="28.0" y1="-6.345075" x2="28.0" y2="-5.638599" />
      <line x1="28.0" y1="-6.345075" x2="28.0" y2="11.654591" />
      <line x1="28.0" y1="11.654591" x2="28.0" y2="12.361068" />
      <line x1="28.0" y1="-5.638599" x2="28.0" y2="12.361068" />
      <line x1="-28.0" y1="-6.345075" x2="-28.0" y2="11.654591" />
      <line x1="-28.0" y1="11.654591" x2="28.0" y2="11.654591" />
      <line x1="-28.0" y1="11.654591" x2="-28.0" y2="12.361068" />
      <line x1="-28.0" y1="-5.638599" x2="-28.0" y2="12.361068" />
      <line x1="-14.0" y1="12.361068" x2="-14.0" y2="-5.638599" />
      <line x1="-14.0" y1="12.361068" x2="14.0" y2="12.361068" />
      <line x1="14.0" y1="12.361068" x2="14.0" y2="-5.638599" />
      <line x1="14.0" y1="-5.650779" x2="14.0" y2="37.348423" />
      <line x1="26.0" y1="37.348423" x2="14.0" y2="37.348423" />
      <line x1="26.0" y1="-5.650779" x2="26.0" y2="37.348423" />
      <line x1="26.0" y1="12.361068" x2="26.0" y2="-5.638599" />
      <line x1="26.0" y1="12.361068" x2="28.0" y2="12.361068" />
      <line x1="-28.0" y1="12.361068" x2="-26.0" y2="12.361068" />
      <line x1="-14.0" y1="37.348423" x2="-26.0" y2="37.348423" />
      <line x1="-14.0" y1="-5.650779" x2="-14.0" y2="37.348423" />
      <line x1="-14.0" y1="37.348423" x2="-14.0" y2="37.372785" />
      <line x1="14.0" y1="37.348423" x2="14.0" y2="37.372785" />
      <line x1="26.0" y1="37.348423" x2="26.0" y2="37.372785" />
      <line x1="-30.0" y1="11.642411" x2="-30.0" y2="12.373248" />
    </g>
  </g>
</svg><line x1="259.8" y1="109.0" x2="338.2" y2="109.0" stroke="#444" stroke-width="0.25" marker-start="url(#arr)" marker-end="url(#arr)"/><text x="299.0" y="107.4" font-size="4.2" text-anchor="middle">60.0</text><line x1="344.2" y1="43.0" x2="344.2" y2="103.0" stroke="#444" stroke-width="0.25" marker-start="url(#arr)" marker-end="url(#arr)"/><text x="348.7" y="73.0" font-size="4.2" text-anchor="middle" transform="rotate(90 348.7 73.0)">45.0</text><rect x="12.0" y="142.0" width="186.0" height="118.0" fill="none" stroke="#bbb" stroke-width="0.2"/><text x="15.0" y="148.0" font-size="4.6" fill="#666">TOP (X-Z)</text><svg x="26.7" y="161.8" width="156.6" height="78.5"  viewBox="-66.40122 -30.175 120.430718 60.35" version="1.1" xmlns="http://www.w3.org/2000/svg">
  <g transform="scale(1,-1)" stroke-linecap="round">
    <g fill="none" stroke="rgb(0,0,0)" stroke-width="0.09" id="visible">
      <line x1="-66.22622" y1="30.0" x2="-66.22622" y2="-30.0" />
      <line x1="-66.22622" y1="-30.0" x2="-66.190259" y2="-30.0" />
      <line x1="-66.190259" y1="30.0" x2="-66.190259" y2="-30.0" />
      <line x1="-66.22622" y1="30.0" x2="-66.190259" y2="30.0" />
      <line x1="-66.190259" y1="30.0" x2="53.809547" y2="30.0" />
      <line x1="53.809547" y1="30.0" x2="53.809547" y2="26.0" />
      <line x1="53.854498" y1="26.0" x2="53.854498" y2="14.0" />
      <line x1="53.809547" y1="14.0" x2="53.809547" y2="-14.0" />
      <line x1="53.854498" y1="-14.0" x2="53.854498" y2="-26.0" />
      <line x1="53.809547" y1="-26.0" x2="53.809547" y2="-30.0" />
      <line x1="49.777188" y1="-26.0" x2="49.854505" y2="-26.0" />
      <line x1="49.854505" y1="-26.0" x2="53.854498" y2="-26.0" />
      <line x1="51.777185" y1="28.0" x2="51.777185" y2="26.0" />
      <line x1="49.777188" y1="14.0" x2="49.777188" y2="26.0" />
      <line x1="51.777185" y1="14.0" x2="51.777185" y2="-14.0" />
      <line x1="49.777188" y1="-26.0" x2="49.777188" y2="-14.0" />
      <line x1="51.777185" y1="-26.0" x2="51.777185" y2="-28.0" />
      <line x1="-64.190262" y1="-28.0" x2="51.777185" y2="-28.0" />
      <line x1="-64.190262" y1="28.0" x2="51.777185" y2="28.0" />
      <line x1="-64.190262" y1="28.0" x2="51.80955" y2="28.0" />
      <line x1="-64.190262" y1="-28.0" x2="-64.190262" y2="28.0" />
      <line x1="-64.190262" y1="-28.0" x2="51.80955" y2="-28.0" />
      <line x1="51.80955" y1="-14.0" x2="51.80955" y2="14.0" />
      <line x1="49.777188" y1="14.0" x2="49.854505" y2="14.0" />
      <line x1="49.854505" y1="26.0" x2="49.854505" y2="14.0" />
      <line x1="49.777188" y1="26.0" x2="49.854505" y2="26.0" />
      <line x1="51.80955" y1="26.0" x2="51.80955" y2="28.0" />
      <line x1="51.80955" y1="-28.0" x2="51.80955" y2="-26.0" />
      <line x1="49.854505" y1="-14.0" x2="49.854505" y2="-26.0" />
      <line x1="49.777188" y1="-14.0" x2="49.854505" y2="-14.0" />
      <line x1="49.854505" y1="-14.0" x2="53.854498" y2="-14.0" />
      <line x1="49.854505" y1="14.0" x2="53.854498" y2="14.0" />
      <line x1="49.854505" y1="26.0" x2="53.854498" y2="26.0" />
      <line x1="-66.190259" y1="-30.0" x2="53.809547" y2="-30.0" />
    </g>
    <g fill="none" stroke="rgb(119,119,119)" stroke-width="0.2" id="hidden" stroke-dasharray="2.4 0.6">
      <line x1="53.773586" y1="30.0" x2="53.809547" y2="30.0" />
      <line x1="-66.22622" y1="30.0" x2="53.773586" y2="30.0" />
      <line x1="53.773586" y1="30.0" x2="53.773586" y2="-30.0" />
      <line x1="53.809547" y1="26.0" x2="53.854498" y2="26.0" />
      <line x1="53.809547" y1="14.0" x2="53.854498" y2="14.0" />
      <line x1="53.809547" y1="-14.0" x2="53.854498" y2="-14.0" />
      <line x1="53.809547" y1="-26.0" x2="53.854498" y2="-26.0" />
      <line x1="53.773586" y1="-30.0" x2="53.809547" y2="-30.0" />
      <line x1="51.80955" y1="-26.0" x2="53.809547" y2="-26.0" />
      <line x1="51.80955" y1="-26.0" x2="51.777185" y2="-26.0" />
      <line x1="49.777188" y1="-26.0" x2="51.777185" y2="-26.0" />
      <line x1="49.777188" y1="26.0" x2="51.777185" y2="26.0" />
      <line x1="49.777188" y1="14.0" x2="51.777185" y2="14.0" />
      <line x1="49.777188" y1="-14.0" x2="51.777185" y2="-14.0" />
      <line x1="-64.222627" y1="-28.0" x2="-64.190262" y2="-28.0" />
      <line x1="-64.222627" y1="28.0" x2="-64.222627" y2="-28.0" />
      <line x1="-64.222627" y1="28.0" x2="-64.190262" y2="28.0" />
      <line x1="-64.222627" y1="28.0" x2="-64.190262" y2="28.0" />
      <line x1="51.777185" y1="28.0" x2="51.80955" y2="28.0" />
      <line x1="-64.222627" y1="-28.0" x2="-64.190262" y2="-28.0" />
      <line x1="51.777185" y1="-28.0" x2="51.80955" y2="-28.0" />
      <line x1="51.80955" y1="-14.0" x2="51.777185" y2="-14.0" />
      <line x1="51.80955" y1="14.0" x2="51.777185" y2="14.0" />
      <line x1="51.80955" y1="26.0" x2="51.777185" y2="26.0" />
      <line x1="51.80955" y1="-14.0" x2="53.809547" y2="-14.0" />
      <line x1="51.80955" y1="14.0" x2="53.809547" y2="14.0" />
      <line x1="51.80955" y1="26.0" x2="53.809547" y2="26.0" />
      <line x1="-66.22622" y1="-30.0" x2="53.773586" y2="-30.0" />
    </g>
  </g>
</svg><line x1="26.7" y1="246.2" x2="183.3" y2="246.2" stroke="#444" stroke-width="0.25" marker-start="url(#arr)" marker-end="url(#arr)"/><text x="105.0" y="244.6" font-size="4.2" text-anchor="middle">120.0</text><line x1="189.3" y1="161.8" x2="189.3" y2="240.2" stroke="#444" stroke-width="0.25" marker-start="url(#arr)" marker-end="url(#arr)"/><text x="193.8" y="201.0" font-size="4.2" text-anchor="middle" transform="rotate(90 193.8 201.0)">60.0</text><rect x="206.0" y="142.0" width="186.0" height="118.0" fill="none" stroke="#333" stroke-width="0.5"/><line x1="206.0" y1="142.0" x2="392.0" y2="142.0" stroke="#999" stroke-width="0.2"/><text x="209.0" y="151.0" font-size="3.6" fill="#777">PART</text><text x="240.0" y="151.0" font-size="4.4" font-weight="bold">FEEDER_TRAY</text><line x1="206.0" y1="156.8" x2="392.0" y2="156.8" stroke="#999" stroke-width="0.2"/><text x="209.0" y="165.7" font-size="3.6" fill="#777">PROJECT</text><text x="240.0" y="165.7" font-size="4.4" font-weight="bold">BEEHIVE DIGITAL TWIN 1:1 (ISI + FLOW SUPER)</text><line x1="206.0" y1="171.5" x2="392.0" y2="171.5" stroke="#999" stroke-width="0.2"/><text x="209.0" y="180.5" font-size="3.6" fill="#777">MATERIAL</text><text x="240.0" y="180.5" font-size="4.4" font-weight="bold">HDPE / PLASTIC</text><line x1="206.0" y1="186.2" x2="392.0" y2="186.2" stroke="#999" stroke-width="0.2"/><text x="209.0" y="195.2" font-size="3.6" fill="#777">QTY</text><text x="240.0" y="195.2" font-size="4.4" font-weight="bold">1</text><line x1="206.0" y1="201.0" x2="392.0" y2="201.0" stroke="#999" stroke-width="0.2"/><text x="209.0" y="210.0" font-size="3.6" fill="#777">BBOX (mm)</text><text x="240.0" y="210.0" font-size="4.4" font-weight="bold">120.0 x 45.0 x 60.0</text><line x1="206.0" y1="215.8" x2="392.0" y2="215.8" stroke="#999" stroke-width="0.2"/><text x="209.0" y="224.7" font-size="3.6" fill="#777">SCALE</text><text x="240.0" y="224.7" font-size="4.4" font-weight="bold">1.3:1</text><line x1="206.0" y1="230.5" x2="392.0" y2="230.5" stroke="#999" stroke-width="0.2"/><text x="209.0" y="239.5" font-size="3.6" fill="#777">UNITS</text><text x="240.0" y="239.5" font-size="4.4" font-weight="bold">mm  |  FITS: SLIDE 0.4, STATIC 0.2</text><line x1="206.0" y1="245.2" x2="392.0" y2="245.2" stroke="#999" stroke-width="0.2"/><text x="209.0" y="254.2" font-size="3.6" fill="#777">SHEET</text><text x="240.0" y="254.2" font-size="4.4" font-weight="bold">30 / 37   2026-07-14</text>
</svg>